<?xml version="1.0" encoding="utf-8"?>
<!-- Generator: Adobe Illustrator 24.0.2, SVG Export Plug-In . SVG Version: 6.00 Build 0)  -->
<svg version="1.1" id="Layer_1" xmlns="http://www.w3.org/2000/svg" xmlns:xlink="http://www.w3.org/1999/xlink" x="0px" y="0px"
	 viewBox="0 0 288 288" style="enable-background:new 0 0 288 288;" xml:space="preserve">
<style type="text/css">
	.st0{fill:#EFDBAB;}
	.st1{fill:#FF6565;}
	.st2{fill:#CB4E4E;}
	.st3{fill:#4D4D4D;}
	.st4{fill:#3E2700;}
	.st5{fill:#2B1800;}
</style>
<g>
	<path class="st0" d="M49.5,97.1c0,0-11.6-2-9.8,0.1c1.8,2.1,8.4,3.3,8.4,3.3L49.5,97.1z"/>
	<path class="st0" d="M48.5,100c0,0-14.1,2.9-11.1,4.2c3,1.3,11.2-0.2,11.2-0.2L48.5,100z"/>
	<path class="st0" d="M49.5,103.8c0,0-12.9,6.2-9.7,6.8c3.2,0.6,10.8-3,10.8-3L49.5,103.8z"/>
	<path class="st0" d="M55.4,105.5c0,0-9.1,11.1-5.9,10.3c3.2-0.9,8.5-7.2,8.5-7.2L55.4,105.5z"/>
	<path class="st1" d="M118.2,112.7c3.7-8.2-19.5-24.6-19.5-24.6s-27.7-4.6-39.7,1.3l6,1.1c0,0-8.7-1.2-13.3,2.2l5,2.3
		c0,0-8.7-3.8-13.8,7.2l5.9-1l-5,4.8l4.1,1.5l-1.3,2.9c0,0,4.7,1.4,8.1,0.8c0,0,0,0-1,3.3c0,0,5.2,2.7,6.5-5.5l1.2,5
		c0,0,5.1-3.5,7.9-6c0,1.3-0.1,3.1-0.5,4.7c0,0,6.7-4.3,16.1-2.7C94.2,111.8,114.4,120.9,118.2,112.7z"/>
	<path class="st2" d="M118.2,112.7c3.7-8.2-19.5-24.6-19.5-24.6s-27.7-4.6-39.7,1.3l6,1.1c0,0-8.7-1.2-13.3,2.2l5,2.3
		c0,0-8.7-3.8-13.8,7.2l5.9-1l-5,4.8l4.1,1.5l-1.3,2.9c0,0,4.7,1.4,8.1,0.8c0,0,0,0-1,3.3c0,0,5.2,2.7,6.5-5.5l1.2,5
		c0,0,5.1-3.5,7.9-6c0,1.3-0.1,3.1-0.5,4.7c0,0,6.7-4.3,16.1-2.7C94.2,111.8,114.4,120.9,118.2,112.7z"/>
	<g>
		<path class="st0" d="M238.1,101.2c0,0,11.6-2,9.8,0.1c-1.8,2.1-8.4,3.3-8.4,3.3L238.1,101.2z"/>
		<path class="st0" d="M239.1,104.1c0,0,14.1,2.9,11.1,4.2c-3,1.3-11.2-0.2-11.2-0.2L239.1,104.1z"/>
		<path class="st0" d="M238.2,108c0,0,12.9,6.2,9.7,6.8c-3.2,0.6-10.8-3-10.8-3L238.2,108z"/>
		<path class="st0" d="M236.5,109.7c0,0,9.1,11.1,5.9,10.3c-3.2-0.9-8.5-7.2-8.5-7.2L236.5,109.7z"/>
		<path class="st1" d="M169.6,112c-3.1-8.5,21.3-23,21.3-23s28-2.5,39.5,4.4l-6.1,0.7c0,0,8.8-0.6,13.1,3.2l-5.1,1.9
			c0,0,9-3.2,13.2,8.2l-5.8-1.4l4.6,5.2l-4.2,1.2l1.1,3c0,0-4.8,1-8.2,0.2c0,0,0.6-3,3.3,4.3c0,0-8,1.3-8.6-6.9l-1.6,4.9
			c0,0-4.8-3.8-7.4-6.6c-0.1,1.3-0.2,3.1,0.1,4.7c0,0-6.4-4.8-15.9-3.9C193.5,112.9,172.7,120.5,169.6,112z"/>
		<path class="st2" d="M213.6,110.4c-2.6-6.1-5.3-12.2-7.8-18.4c-0.5-1.2-0.9-2.3-1.3-3.5c-7.6-0.1-13.6,0.4-13.6,0.4
			s-24.4,14.6-21.3,23c3.1,8.5,24,0.9,33.4,0c5.1-0.5,9.2,0.7,12,1.8C214.6,112.7,214.1,111.5,213.6,110.4z"/>
	</g>
	<ellipse class="st3" cx="170.1" cy="240.3" rx="78.2" ry="7.5"/>
	<path class="st0" d="M184.8,73.4c0,0-9-3.7-7.1-10.1c0,0,11.6-10.8,15.7-9.3C197.6,55.5,184.8,73.4,184.8,73.4z"/>
	<path class="st4" d="M175.6,155.6c0,0,47.3,65.4,50.4,62.2c3.1-3.2,13.2-8.6,13.2-8.6l-4.9-0.2l4.6-3.3l-5.3,0.3l2.6-4.7l-10.3,8.8
		l-46.4-60.4L175.6,155.6z"/>
	<path class="st4" d="M134,157.8c0,0-0.9,81.9-5.3,81.2c-4.4-0.6-15.7,1.2-15.7,1.2l3.7-3.1l-5.7,0.2l4.4-3l-4.9-2.2l13.6,0.7
		l3.3-77.3L134,157.8z"/>
	<path class="st5" d="M193.9,168.6l-14.4-18.8l-3.9,5.8c0,0,5.6,7.7,13.1,17.8C190.4,171.7,192.1,170.1,193.9,168.6z"/>
	<path class="st5" d="M133.5,183.9c0.4-14.5,0.5-26.2,0.5-26.2l-6.6-2.3l-1.2,27.5C128.7,183.3,131.1,183.6,133.5,183.9z"/>
	<path class="st1" d="M211.9,126.5c-1.2-5.7-10.1-6.3-10.1-6.3c5.9-4.2,13.6-2.6,13.6-2.6c-4.7-7.3-17.2-6.8-17.2-6.8
		c5.3,0,8.9-5,8.9-5c-10.6-0.8-16.6-16.9-17.7-26.2c-1.2-9.3-15.4-21-15.4-21c4.7-3.6,7.7,0,7.7,0c-2.4-6.8-8.3-5.6-8.3-5.6
		l10.6-4.2c-8.9-4-17.2,0-17.2,0l8.9-9c0,0-9.5,4.7-43.2,13.3c-24.8,6.3-32,32-34.1,45.1c-2.8,7.9-7.9,15.8-15.3,16.4
		c0,0,3.5,5,8.9,5c0,0-12.4-0.5-17.2,6.8c0,0,7.7-1.6,13.6,2.6c0,0-8.9,0.5-10.1,6.3c0,0,13,1,11.8,5.7c0,0-8.3-1-10.6,2.6l12.4,3.1
		c0,0-8.3,5.7-7.1,9.9h8.3c0,0-5.9,8.4,4.7,13.6l5.5-4.4c0,0,0.9,8.4,6,10.7l6-7l6.3,7l6.9-6.3c7.2,4.2,17,8.9,19.8,9.6v-5.9l6.7,10
		c0,0,4.2-4.5,7.1-11.3l2.8,4.2c0,0,3.9-4.2,6.8-10.5l3.8,1.6c11.2-2.6,16-11.5,16-11.5l0.6,5.2c10.6-5.2,4.7-13.6,4.7-13.6h8.3
		c1.2-4.2-7.1-9.9-7.1-9.9l12.4-3.1c-2.4-3.7-10.6-2.6-10.6-2.6C198.9,127.6,211.9,126.5,211.9,126.5z"/>
	<g>
		<path class="st2" d="M198.3,150.4c-0.5,0.6-0.8,1-0.8,1l-2.8-4.2c-2.9,6.8-7.1,11.3-7.1,11.3l-6.7-10v5.9
			c-2.9-0.7-12.7-5.4-19.8-9.6l-6.9,6.3l-6.3-7l-6,7c-5.1-2.2-6-10.7-6-10.7l-5.5,4.4c-10.6-5.2-4.7-13.6-4.7-13.6h-8.3
			c-1.2-4.2,7.1-9.9,7.1-9.9l-12.4-3.1c2.4-3.7,10.6-2.6,10.6-2.6c1.2-4.7-11.8-5.7-11.8-5.7c1.2-5.7,10.1-6.3,10.1-6.3
			c-5.9-4.2-13.6-2.6-13.6-2.6c4.7-7.3,17.2-6.8,17.2-6.8c-5.3,0-8.9-5-8.9-5c2.9-0.2,5.4-1.6,7.5-3.5c-2.1-4-3.2-8.4-3-13
			c0.3-7.3,3.4-13.6,8.2-18.1c-21.2,8.1-27.7,31.4-29.6,43.6c-2.8,7.9-7.9,15.8-15.3,16.4c0,0,3.5,5,8.9,5c0,0-12.4-0.5-17.2,6.8
			c0,0,7.7-1.6,13.6,2.6c0,0-8.9,0.5-10.1,6.3c0,0,13,1,11.8,5.7c0,0-8.3-1-10.6,2.6l12.4,3.1c0,0-8.3,5.7-7.1,9.9h8.3
			c0,0-5.9,8.4,4.7,13.6l5.5-4.4c0,0,0.9,8.4,6,10.7l6-7l6.3,7l6.9-6.3c7.1,4.2,17,8.9,19.8,9.6v-5.9l6.7,10c0,0,4.2-4.5,7.1-11.3
			l2.8,4.2c0,0,3.9-4.2,6.8-10.5l3.8,1.6c11.2-2.6,16-11.5,16-11.5l0.6,5.2C199.5,158.1,199.2,153.2,198.3,150.4z"/>
	</g>
	<g>
		<path class="st0" d="M131,108c0,0,2.5-6.8,4.7-6.3c2.3,0.5,1.6,7,1.6,7L131,108z"/>
		<path class="st0" d="M141.9,109.4c0,0,0.7,5.5,2.7,5.3c2-0.2,3.1-5.1,3.1-5.1L141.9,109.4z"/>
		<path class="st0" d="M151.3,108c0,0,0.9-6.5,2.6-5.9s4.1,6.2,4.1,6.2L151.3,108z"/>
		<path class="st0" d="M162,108.2c0,0,3.2,4.9,4.5,4.3c1.3-0.6,0.6-5.2,0.6-5.2L162,108.2z"/>
		<path class="st0" d="M168.7,106.5c0,0-0.6-7.1,1.5-5.8c2.1,1.3,4.5,4.2,4.5,4.2L168.7,106.5z"/>
		<g>
			<path class="st4" d="M127.6,107.3c0,0,0.2,0,0.6,0.1c0.4,0,0.9,0.1,1.6,0.2c0.7,0.1,1.5,0.2,2.5,0.3c1,0.1,2.1,0.2,3.2,0.2
				c1.2,0.1,2.5,0.1,3.8,0.2c1.4,0,2.8,0.1,4.3,0.1c0.7,0,1.5,0,2.3,0c0.8,0,1.5-0.1,2.3-0.1c1.6,0,3.1-0.1,4.7-0.3
				c1.6-0.1,3.2-0.3,4.7-0.4c1.5-0.2,3.1-0.4,4.5-0.6c1.5-0.2,2.9-0.5,4.2-0.7c1.4-0.2,2.6-0.5,3.8-0.7c1.2-0.3,2.3-0.4,3.2-0.7
				c0.9-0.2,1.8-0.4,2.4-0.6c1.4-0.3,2.1-0.5,2.1-0.5s-0.7,0.3-2,0.8c-0.7,0.2-1.5,0.6-2.4,0.9c-0.9,0.4-2,0.7-3.1,1
				c-1.2,0.3-2.4,0.8-3.8,1c-1.3,0.3-2.8,0.7-4.2,0.9c-1.5,0.2-3,0.6-4.6,0.7c-1.6,0.2-3.2,0.4-4.8,0.5c-1.6,0.1-3.2,0.2-4.8,0.2
				c-1.6,0.1-3.1,0-4.7-0.1c-1.5,0-3-0.2-4.3-0.3c-1.4-0.2-2.7-0.3-3.9-0.5c-1.2-0.2-2.3-0.4-3.2-0.6c-1-0.2-1.8-0.4-2.5-0.6
				C128.4,107.6,127.6,107.3,127.6,107.3z"/>
		</g>
	</g>
	<path class="st0" d="M106.6,74.6c0,0,9-3.7,7.1-10.1c0,0-11.6-10.8-15.7-9.3C93.9,56.8,106.6,74.6,106.6,74.6z"/>
	<path class="st0" d="M154.9,70.2c0,0-8.8-1.3-9.8,8c-1,9.3,7.1,10.6,10.9,10.1c5.8-0.7,10-4.8,7.4-12.1
		C161.2,70.1,154.9,70.2,154.9,70.2z"/>
	<path class="st4" d="M154.7,76.9c0,0-2.2-0.3-2.5,2c-0.3,2.4,1.8,2.7,2.8,2.6c1.5-0.2,2.6-1.2,1.9-3.1
		C156.3,76.9,154.7,76.9,154.7,76.9z"/>
</g>
</svg>
