<?xml version="1.0" encoding="utf-8"?>
<!-- Generator: Adobe Illustrator 24.0.2, SVG Export Plug-In . SVG Version: 6.00 Build 0)  -->
<svg version="1.1" id="Layer_1" xmlns="http://www.w3.org/2000/svg" xmlns:xlink="http://www.w3.org/1999/xlink" x="0px" y="0px"
	 viewBox="0 0 288 288" style="enable-background:new 0 0 288 288;" xml:space="preserve">
<style type="text/css">
	.st0{fill:#3E2700;}
	.st1{fill:#2B1800;}
	.st2{fill:#4D4D4D;}
	.st3{fill:#FF6565;}
	.st4{fill:#CB4E4E;}
	.st5{fill:#EFDBAB;}
	.st6{opacity:0.2;fill:#3E2700;}
</style>
<g>
	<path class="st0" d="M216.6,125.3c1.6-1.9-0.5-1.8-0.5-1.8c1.5-1.7-1-2.2-1-2.2c0.5-2.6-5.3-0.1-5.3-0.1s0.4-4.2-1.1-4.6
		c-1.1-0.3-1.1,2.9-1.6,4.9c-20.6,1.7-48.2-10.8-42.5-0.9c1.8,3.2,23.4,10.5,40.2,9.5l0,0c0,0,0,0,0.1,0c1.9-0.1,3.8-0.3,5.5-0.7
		c2.3-0.3,4.7-0.8,5.7-1.3C218.4,127,216.6,125.3,216.6,125.3z"/>
	<path class="st1" d="M189.2,120.8c0-0.1,0-0.3,0-0.4c-11.9-1.9-22.5-5-24.9-3c0.8,1.5,1.5,3.1,2,4.7c4,2.4,13.7,5.7,24.1,7.2
		C189.6,126.5,189.1,123.7,189.2,120.8z"/>
	<path class="st2" d="M193.4,249.1c0,3.9-24.5,7.1-54.7,7.1s-54.7-3.2-54.7-7.1c0-3.9,24.5-7.1,54.7-7.1S193.4,245.2,193.4,249.1z"
		/>
	<path class="st0" d="M164,203.7c0,0,12.6,39.7-6,32.8l-10.7-5.3c0,0,1.4,11.3-2,9.7c-3.4-1.6-4.2-15.4-2-16.6
		c2.1-1.2,19.3,11.7,18.7,2.8c-0.5-8.9-4-21.9-4-21.9L164,203.7z"/>
	<path class="st0" d="M134.3,200.6c0,0,12.6,39.7-6,32.8l-10.7-5.3c0,0,1.4,11.3-2,9.7c-3.4-1.6-4.2-15.4-2-16.6
		c2.1-1.2,19.3,11.8,18.7,2.8c-0.5-8.9-4-21.9-4-21.9L134.3,200.6z"/>
	<path class="st1" d="M166,219.9c0.6,0,1.1,0,1.7,0.1c-1.1-8.2-3.7-16.2-3.7-16.2l-6,1.6c0,0,2,7.4,3.2,14.9
		C162.7,220,164.3,219.9,166,219.9z"/>
	<path class="st1" d="M134,221.9c1.5,0,3,0.2,4.5,0.4c-0.3-9.7-4.2-21.8-4.2-21.8l-6,1.6c0,0,3,11.1,3.9,19.8
		C132.8,221.9,133.4,221.9,134,221.9z"/>
	<path class="st3" d="M89.2,141.3c4.9-5.7-11.4,15.4-9.8,18.6c1.6,3.2,9-6.8,9-6.8s-12.1,17.9-5.9,29.7c3,5.7,4.1,3.7,4.4,0.1
		c0.5,4,1.7,9.1,4.3,14.6c6.1,13.3,2-12.5,2-12.5s6.1,24.4,11,22.6c1.5-0.5,1.8-2.1,1.4-3.9c3.3,6.1,7.7,11.9,10.8,8.2
		c1.4-1.6,2.2-2.9,2.7-3.9c0.9,3.7,3.4,14.6,8.3,2.9c-0.4,8.5,3.9,9.1,7.7,2.8c1-1.7,1.9-3,2.6-4.1c0.3,1,0.8,2,1.2,3.3
		c6.9,17.3,10.8-7.8,10.8-7.8s4.9,27.6,6.5,2.9c0,0,8.2,17.5,8-2.9c0,0,7.9,17.5,9.9-4.7c0,0,13.8,19.7,6.9-15.4
		c0,0,6.9,14.3,3.7-8.2c0,0-3.1-19.2-4.9-31.4c1.2,6.1,3.2,12.3,5.8,8.1c5.2-8.2-19.9-61.1-21.4-76.2c0,0-3.9-20.8-23.5-33.4
		c-19.5-12.5,0,9,0,9s-23.2-14.7-33.4-10C99.8,46.4,120.3,54,120.3,54s-19.3-0.8-16.7,3.1c2.7,3.9,12,5.7,12,5.7s-14.7-1.8-17.5,1.4
		c-2.8,3.2,15.5,4.3,15.5,4.3S98.8,70,97.9,75c-0.9,5,17-2.5,17-2.5s-21,10-17,14c1.7,1.7,4.8,0.7,7.7-1c-3.1,2.7-5.3,5.4-1.7,5.3
		c2.9,0,4.5-0.7,5.4-1.5c-3.6,9.2-15.6,38.5-26.7,52C69.3,157.4,84.4,147,89.2,141.3z"/>
	<g>
		<path class="st4" d="M184.9,183.7c-0.2,2.3-0.3,4.2-0.5,5.7c0.8,0.4,1.5-0.4,1.4-4C185.2,184.4,184.9,183.7,184.9,183.7z"/>
		<path class="st4" d="M182.7,193.9c-2,0.1-4.3-13.1-4.3-13.1s-3.9,25.1-10.8,7.8c-0.5-1.2-0.9-2.3-1.2-3.3
			c-0.7,1.1-1.6,2.4-2.6,4.1c-3.9,6.2-8.1,5.7-7.7-2.8c-4.9,11.7-7.4,0.9-8.3-2.9c-0.5,1-1.3,2.3-2.7,3.9c-3.1,3.7-7.5-2.1-10.8-8.2
			c0.3,1.8,0.1,3.4-1.4,3.9c-4.9,1.8-11-22.6-11-22.6s4.1,25.8-2,12.5c-2.5-5.5-3.7-10.5-4.3-14.6c-0.3,3.6-1.4,5.6-4.4-0.1
			c-6.3-11.8,5.9-29.7,5.9-29.7s-7.3,10-9,6.8c-1.6-3.2,14.7-24.4,9.8-18.6c-4.9,5.7-19.9,16.1-6.7,0c8-9.7,15.8-16.9,17.9-33.5
			c2.1-16.6-5.3-19.5-5.1-27.4c0.1-1.7,0.3-3.3,0.6-4.9c-6.1-1-11.6-4.3-15.5-8.9c-0.5,0.1-1,0.3-1.5,0.5
			C99.8,46.4,120.3,54,120.3,54s-19.3-0.8-16.7,3.1c2.7,3.9,12,5.7,12,5.7s-14.7-1.8-17.5,1.4c-2.8,3.2,15.5,4.3,15.5,4.3
			S98.8,70,97.9,75c-0.9,5,17-2.5,17-2.5s-21,10-17,14c1.7,1.7,4.8,0.7,7.7-1c-3.1,2.7-5.3,5.4-1.7,5.3c2.9,0,4.5-0.7,5.4-1.5
			c-3.6,9.2-15.6,38.5-26.7,52c-13.3,16.1,1.8,5.7,6.7,0c4.9-5.7-11.4,15.4-9.8,18.6c1.6,3.2,9-6.8,9-6.8s-12.1,17.9-5.9,29.7
			c3,5.7,4.1,3.7,4.4,0.1c0.5,4,1.7,9.1,4.3,14.6c6.1,13.3,2-12.5,2-12.5s6.1,24.4,11,22.6c1.5-0.5,1.8-2.1,1.4-3.9
			c3.3,6.1,7.7,11.9,10.8,8.2c1.4-1.6,2.2-2.9,2.7-3.9c0.9,3.7,3.4,14.6,8.3,2.9c-0.4,8.5,3.9,9.1,7.7,2.8c1-1.7,1.9-3,2.6-4.1
			c0.3,1,0.8,2,1.2,3.3c6.9,17.3,10.8-7.8,10.8-7.8s4.9,27.6,6.5,2.9c0,0,8.2,17.5,8-2.9c0,0,7.9,17.5,9.9-4.7
			C174.3,200.4,185.5,216.3,182.7,193.9z"/>
	</g>
	<g>
		<path class="st5" d="M162.2,130.1c0,0,4.4,0.9,7-11.4c2.6-12.3,8.8-56.2-18.4-53.6C118.7,68.2,149.6,133.7,162.2,130.1z"/>
		<path class="st6" d="M170.1,111.6c-2.6,12.3-7,11.4-7,11.4c-8.5,2.5-25.6-27.1-25.5-47.2c-5.5,19.2,14.9,57.1,24.6,54.3
			c0,0,4.4,0.9,7-11.4c0.6-2.9,1.4-7.5,2-12.9C170.8,108.1,170.4,110.1,170.1,111.6z"/>
		<path class="st0" d="M166.3,86.5c0.3,2.5-0.6,4.6-2,4.7c-1.3,0.1-2.6-1.8-2.9-4.2c-0.3-2.5,0.6-4.6,2-4.7
			C164.7,82.2,166,84.1,166.3,86.5z"/>
		<path class="st0" d="M148.3,88.4c0.3,2.5-0.6,4.6-2,4.7c-1.3,0.1-2.6-1.8-2.9-4.2c-0.3-2.5,0.6-4.6,2-4.7
			C146.7,84,148,85.9,148.3,88.4z"/>
	</g>
	<path class="st0" d="M108.9,171.2c-1.7-0.6-3.8-1.7-2.9-3c0.3-0.5,3.2,0.8,3.8,0.9c-0.4-0.5-2.9-2.4-2.7-2.8c0.6-1,2.1-0.3,3.4,0.7
		c-0.6-0.7-1.2-1.6-1.3-2.5c-0.2-2.3,3.7,1.8,3.7,1.8l0,0.9c0-0.3,0-0.6,0-0.9c0-0.1,0-0.2,0-0.3c2.6,0.1,4.8-1,6.1-4.8
		c6.9-19.9-2.6-53.1,6.9-45.5c4.6,3.7,11.5,59.3-13.2,58.6c0,0-7.3-0.4-7-2.4C105.9,170.8,107.5,170.9,108.9,171.2z"/>
	<path class="st1" d="M121.5,147.5c-0.3,4.8-1.1,9.5-2.5,13.6c-1.3,3.8-3.5,5-6.1,4.8c0,0.1,0,0.2,0,0.3c0,0-4-4.1-3.7-1.8
		c0.1,0.9,0.6,1.8,1.3,2.5c-1.3-1-2.8-1.7-3.4-0.7c-0.3,0.5,2.3,2.4,2.7,2.8c-0.6-0.1-3.5-1.3-3.8-0.9c-0.9,1.3,1.2,2.3,2.9,3
		c-1.3-0.3-2.9-0.5-3.1,0.6c-0.4,1.9,7,2.4,7,2.4c10.2,0.3,15-9.1,16.8-20.5C126.5,152.1,123.8,150,121.5,147.5z"/>
</g>
</svg>
