<?xml version="1.0" encoding="utf-8"?>
<!-- Generator: Adobe Illustrator 24.0.2, SVG Export Plug-In . SVG Version: 6.00 Build 0)  -->
<svg version="1.1" id="Layer_1" xmlns="http://www.w3.org/2000/svg" xmlns:xlink="http://www.w3.org/1999/xlink" x="0px" y="0px"
	 viewBox="0 0 288 288" style="enable-background:new 0 0 288 288;" xml:space="preserve">
<style type="text/css">
	.st0{fill:#FF6565;}
	.st1{fill:#CB4E4E;}
	.st2{fill:#4D4D4D;}
	.st3{fill:#EFDBAB;}
	.st4{opacity:0.2;fill:#3E2700;}
	.st5{fill:#3E2700;}
	.st6{fill:#2B1800;}
</style>
<g>
	<path class="st0" d="M203.4,142.9c0,0-4.3,2.2,0,7.3c0,0,32,2.1,29-25.6c0,0-0.5-5.5-1.7-6.8c-1.2-1.3-0.8,4-0.8,4
		s-0.7-4.3-2.3-4.2c-1.7,0,0.2,4.9,0.2,4.9s-1.3-5.3-3-3.9c-1.7,1.4,0.8,4.9,0.8,4.9s-2-0.3-2.3,0.8c-0.3,1.2,2.5,1.2,2.5,1.2
		s2.4,13.2-10.2,16.3C207.4,143.7,203.4,142.9,203.4,142.9z"/>
	<path class="st1" d="M218.3,140.8c-0.8,0.4-1.7,0.7-2.7,0.9c-8.2,2-12.2,1.2-12.2,1.2s-4.3,2.2,0,7.3c0,0,10.5,0.7,19-4
		C220.8,144.5,219.5,142.7,218.3,140.8z"/>
	<ellipse class="st2" cx="138.9" cy="237.2" rx="78.2" ry="7.5"/>
	<path class="st3" d="M190,42.5c0,0,18.2,5,16.2,21.3c-2,16.3-12.8,17.9-12.8,17.9s-16.3-1.6-16.5-10.8s10.2-3.8,13.6-12.7
		C194.7,47,190,42.5,190,42.5z"/>
	<path class="st4" d="M200.5,68.9c-3-1.8-5.7-4-8.3-6.4c-0.9-0.8-1.7-1.7-2.7-2.4c-4.1,6.1-12.7,2.3-12.6,10.7
		c0.2,9.2,16.5,10.8,16.5,10.8s7.3-1.1,11-10.5C203.1,70.5,201.7,69.7,200.5,68.9z"/>
	<path class="st5" d="M91.5,128.9c0,0-16,17.7-3.5,42.2c12.5,24.4,109,22.5,115.6-2c8.3-30.9-9.3-38.2-9.3-38.2L91.5,128.9z"/>
	<path class="st6" d="M137.5,164.1c0-5.1,0.5-10.1,1.9-15c3.1-11.5,14.7-18.7,26.2-18.5c0.1-0.1,0.3-0.2,0.4-0.3l-74.4-1.4
		c0,0-16,17.7-3.5,42.2c6.5,12.8,36.1,18.3,63.8,17.2C143.1,183.7,137.5,174.9,137.5,164.1z"/>
	<path class="st0" d="M89.9,102.4c0,0,3.9-38.3,58.9-48.7c0,0,12.1-2.7,14.7,0c2.7,2.7-7.7,4.3-7.7,4.3s19.3-6,22-0.7
		c2.7,5.3-9.8,4.7-9.8,4.7s17.2-1.3,27.2,9.7s16.3,45,4.3,57.8c0,0,10.3,1.8,11.3,6.5s-15.7-1.7-15.7-1.7s12.3,9.6,6.3,12.8
		c-6,3.2-14.7-9.8-14.7-9.8s7.3,14-0.7,14s-9-12.7-9-12.7s4,18.3-3.3,17.7c-7.3-0.7-5.8-14.8-5.8-14.8s-0.4,16.2-9.6,14.8
		c-9.2-1.4-4.2-14.8-4.2-14.8s-2.3,13.5-8.3,12s0.7-12,0.7-12s-4.7,14.8-14.3,10.5c-9.7-4.3-7-13.3-7-13.3s-1.9,12-6.3,10.3
		c-4.4-1.7,0-11,0-11s-7.4,13.6-12.4,9.1c-5-4.5-0.3-11.8-0.3-11.8s-8,13.7-10.3,8.3c-2.3-5.3,3-14.2,3-14.2s-15,13.8-15,6.2
		c0-7.7,8.7-12,8.7-12s-18.3,14.3-17.7,5.8c0.7-8.5,14.7-8.8,14.7-8.8s-16.7,2-14.7-2.3c2-4.3,12.4-2.6,12.4-2.6L89.9,102.4z"/>
	<path class="st1" d="M132.8,148.1c0.1-1.4,0.2-2.9,0.5-4.2c-20.9-11.6-35-38.9-25.7-61.4c2.9-7,6.9-13.1,11.5-18.4
		c-26.9,15.2-29.2,38.3-29.2,38.3l-2.7,13.4c0,0-10.3-1.7-12.4,2.6c-1.5,3.2,7.3,2.9,12,2.6c-4.1,0.6-11.5,2.5-11.9,8.6
		c-0.5,5.8,7.9,1,13.3-2.6c-2.1,2-4.3,5-4.3,8.8c0,7.7,15-6.2,15-6.2s-5.3,8.8-3,14.2c2.2,5,9.3-6.6,10.2-8.1
		c-0.7,1.1-4.1,7.5,0.4,11.6c5,4.5,12.4-9.1,12.4-9.1s-4.4,9.3,0,11c3.5,1.3,5.4-6,6-9.1c-0.3,2.6-0.2,8.7,7.2,12.1
		c0.3,0.1,0.5,0.2,0.8,0.3C132.9,151,132.8,149.5,132.8,148.1z"/>
	<path class="st3" d="M118.4,42.5c0,0-19.1,2-19.8,18.7c-0.7,16.6,9.9,20,9.9,20s16.6,1,18.3-8.2s-9.6-5.4-11.6-14.9
		C112.9,46.2,118.4,42.5,118.4,42.5z"/>
	<path class="st4" d="M123.7,66.4c-7.3,3.6-15.6,5.4-23.8,5.2c2.7,7.7,8.5,9.6,8.5,9.6s16.6,1,18.3-8.2
		C127.5,69.3,125.9,67.7,123.7,66.4z"/>
	<path class="st0" d="M100,80.4c4.8,5.3,9.8,10.7,15.5,14.3c1.3,0.8,2.6,1.4,4,1.8c3.9-5.9,6.6-14.3,8.4-21.9
		c-0.3-2.3-0.7-4.6-1.1-6.9c-1.2-0.9-2.8-1.7-4.8-2.3c-6.4-2,2.6,8.5,2.6,8.5s-14.5-6.8-12.9-3c1.6,3.8,4.2,4.7,4.2,4.7
		s-18.3-1.7-4.3,3.8C111.5,79.3,103.7,78.7,100,80.4z"/>
	<path class="st3" d="M121.2,92.7c0,0-8.8-1.3-9.8,8s7.1,10.6,10.9,10.1c5.8-0.7,10-4.8,7.4-12.1C127.5,92.6,121.2,92.7,121.2,92.7z
		"/>
	<path class="st3" d="M160.7,81.4c0,0-8.8-1.3-9.8,8c-1,9.3,7.1,10.6,10.9,10.1c5.8-0.7,10-4.8,7.4-12.1
		C167,81.3,160.7,81.4,160.7,81.4z"/>
	<path class="st3" d="M192.2,99.6c0,0-8.8-1.3-9.8,8s7.1,10.6,10.9,10.1c5.8-0.7,10-4.8,7.4-12.1C198.5,99.6,192.2,99.6,192.2,99.6z
		"/>
	<g>
		<path class="st3" d="M131.3,121.3c0,0,0.9-5.8,2.6-5.8c1.7,0,4,7.6,4,7.6L131.3,121.3z"/>
		<path class="st3" d="M178.8,125.1c0,0-0.9-5.8-2.6-5.8c-1.7,0-4,7.6-4,7.6L178.8,125.1z"/>
		<g>
			<path class="st5" d="M126.1,119.3c0,0,0.2,0.1,0.6,0.2c0.4,0.1,1,0.3,1.8,0.5c1.6,0.4,3.8,1,6.5,1.6c1.3,0.3,2.8,0.6,4.4,1
				c1.5,0.4,3.2,0.6,4.9,0.9c1.7,0.3,3.5,0.6,5.2,0.8c1.8,0.2,3.6,0.5,5.4,0.6c0.9,0.1,1.8,0.2,2.7,0.3c0.9,0,1.8,0.1,2.7,0.1
				c0.9,0,1.8,0.1,2.7,0.1c0.9,0,1.8,0,2.6,0c0.9,0,1.7,0,2.5,0c0.8,0,1.6-0.1,2.4-0.1c0.8,0,1.6,0,2.3-0.1c0.7,0,1.5-0.1,2.1-0.2
				c1.4-0.1,2.6-0.2,3.8-0.3c1.1-0.2,2.1-0.3,2.9-0.4c1.6-0.2,2.6-0.3,2.6-0.3s-0.9,0.3-2.4,0.9c-0.8,0.3-1.7,0.6-2.8,0.9
				c-1.1,0.3-2.4,0.6-3.8,0.9c-0.7,0.1-1.4,0.3-2.2,0.4c-0.8,0.1-1.5,0.2-2.3,0.3c-0.8,0.1-1.6,0.2-2.5,0.3
				c-0.8,0.1-1.7,0.1-2.6,0.2c-0.9,0-1.8,0.1-2.7,0.1c-0.9,0-1.8,0-2.8,0c-0.9,0-1.9-0.1-2.8-0.1c-0.9-0.1-1.9-0.2-2.8-0.2
				c-1.9-0.2-3.7-0.5-5.6-0.7c-0.9-0.1-1.8-0.3-2.7-0.5c-0.9-0.2-1.8-0.4-2.6-0.6c-1.7-0.4-3.4-0.9-4.9-1.4
				c-0.8-0.2-1.5-0.5-2.2-0.7c-0.7-0.3-1.4-0.5-2.1-0.8c-1.3-0.5-2.5-1-3.6-1.4c-1-0.5-1.9-0.9-2.7-1.3c-0.7-0.4-1.3-0.7-1.7-0.9
				C126.3,119.4,126.1,119.3,126.1,119.3z"/>
		</g>
	</g>
	<path class="st5" d="M155.7,110.9c0,2.6,0.7,4.6,1.6,4.6c0.9,0,1.6-2.1,1.6-4.6c0-2.6-0.7-4.6-1.6-4.6
		C156.4,106.3,155.7,108.3,155.7,110.9z"/>
	<path class="st5" d="M164.6,110.8c0,2.6,0.7,4.6,1.6,4.6c0.9,0,1.6-2.1,1.6-4.6c0-2.6-0.7-4.6-1.6-4.6
		C165.3,106.1,164.6,108.2,164.6,110.8z"/>
	<path class="st5" d="M121,99.4c0,0-2.2-0.3-2.5,2c-0.3,2.4,1.8,2.7,2.8,2.6c1.5-0.2,2.6-1.2,1.9-3.1C122.6,99.4,121,99.4,121,99.4z
		"/>
	<path class="st5" d="M160.5,88.1c0,0-2.2-0.3-2.5,2c-0.3,2.4,1.8,2.7,2.8,2.6c1.5-0.2,2.6-1.2,1.9-3.1
		C162.1,88.1,160.5,88.1,160.5,88.1z"/>
	<path class="st5" d="M192,106.4c0,0-2.2-0.3-2.5,2c-0.3,2.4,1.8,2.7,2.8,2.6c1.5-0.2,2.6-1.2,1.9-3.1
		C193.6,106.4,192,106.4,192,106.4z"/>
	<path class="st0" d="M85.4,142.9c0,0,4.3,2.2,0,7.3c0,0-32,2.1-29-25.6c0,0,0.5-5.5,1.7-6.8c1.2-1.3,0.8,4,0.8,4s0.7-4.3,2.3-4.2
		c1.7,0-0.2,4.9-0.2,4.9s1.3-5.3,3-3.9c1.7,1.4-0.8,4.9-0.8,4.9s2-0.3,2.3,0.8c0.3,1.2-2.5,1.2-2.5,1.2s-2.4,13.2,10.2,16.3
		C81.4,143.7,85.4,142.9,85.4,142.9z"/>
	<path class="st1" d="M85.4,142.9c0,0,4.3,2.2,0,7.3c0,0-32,2.1-29-25.6c0,0,0.5-5.5,1.7-6.8c1.2-1.3,0.8,4,0.8,4s0.7-4.3,2.3-4.2
		c1.7,0-0.2,4.9-0.2,4.9s1.3-5.3,3-3.9c1.7,1.4-0.8,4.9-0.8,4.9s2-0.3,2.3,0.8c0.3,1.2-2.5,1.2-2.5,1.2s-2.4,13.2,10.2,16.3
		C81.4,143.7,85.4,142.9,85.4,142.9z"/>
	<path class="st0" d="M211.9,227.6l-24.3-19c13.4-10.2,13.9-24,13.9-24s13.1,1,8.1-4.3c-3.1-3.3-4.6-3.9-5.2-3.9
		c2.8-1.5,16.2-8.8-1.5-5.8c0,0-3.5,7.9-20.6,10.8l0,0c0,0,5.6-1.3,2.1-3.7c-3.2-2.2-10.5,3.6-11.8,4.7c0,0,0,0-0.1,0
		c1-1,5.8-6.4,4.4-9.1c-1.5-3-9.2,9.3-9.2,9.3c-12,0.3-27.6-0.6-43-3.2c0.4-0.4,0.9-0.8,1.3-1.2c12.6-11.6-7.7,0-7.7,0l0,0
		c-9.5-24.6-7.2-1.7-7.2-1.6c0,0,0,0,0,0c-8.2-11.7-8.2-2.2-8.2-2.2c-5.6-1.7-11-3.7-15.8-6.1c0,0-12.1-7.7-8.7-1.7
		c3.3,6,4.7,8.3,4.7,8.3s-8.7-4-8.5,0c0.2,4,8.5,4.7,8.5,4.7s-12.7,3-8.5,6.3c4.2,3.3,8.5,0,8.5,0s-0.6,6.4,5,13.7
		c-6.4,0.9-20.7,4.1-19.6,13.7c1.3,12.3,14.7,18.7,14.7,18.7s-12-1-11.5,3.3s20.8,0,20.8,0s4.7-1.7-2.7-5.3
		c-7.3-3.7-21.4-14.3-8.6-19.4c6.3-2.5,10.9-3.7,14-4.2c8.1,5.8,21.7,11.1,44.3,12.6c20.3,1.4,33.9-2,43.1-7.1
		c8.1,6.6,26.2,21.1,29.3,21.1C224.1,232.9,237.3,206.9,211.9,227.6z"/>
	<path class="st1" d="M211.9,227.6l-24.3-19c13.4-10.2,13.9-24,13.9-24s13.1,1,8.1-4.3c-3.1-3.3-4.6-3.9-5.2-3.9
		c2.8-1.5,16.2-8.8-1.5-5.8c0,0-3.5,7.9-20.6,10.8l0,0c0,0,5.6-1.3,2.1-3.7c-3.2-2.2-10.5,3.6-11.8,4.7c0,0,0,0-0.1,0
		c1-1,5.8-6.4,4.4-9.1c-1.5-3-9.2,9.3-9.2,9.3c-12,0.3-27.6-0.6-43-3.2c0.4-0.4,0.9-0.8,1.3-1.2c12.6-11.6-7.7,0-7.7,0l0,0
		c-9.5-24.6-7.2-1.7-7.2-1.6c0,0,0,0,0,0c-8.2-11.7-8.2-2.2-8.2-2.2c-5.6-1.7-11-3.7-15.8-6.1c0,0-12.1-7.7-8.7-1.7
		c3.3,6,4.7,8.3,4.7,8.3s-8.7-4-8.5,0c0.2,4,8.5,4.7,8.5,4.7s-12.7,3-8.5,6.3c4.2,3.3,8.5,0,8.5,0s-0.6,6.4,5,13.7
		c-6.4,0.9-20.7,4.1-19.6,13.7c1.3,12.3,14.7,18.7,14.7,18.7s-12-1-11.5,3.3s20.8,0,20.8,0s4.7-1.7-2.7-5.3
		c-7.3-3.7-21.4-14.3-8.6-19.4c6.3-2.5,10.9-3.7,14-4.2c8.1,5.8,21.7,11.1,44.3,12.6c20.3,1.4,33.9-2,43.1-7.1
		c8.1,6.6,26.2,21.1,29.3,21.1C224.1,232.9,237.3,206.9,211.9,227.6z"/>
</g>
</svg>
