<?xml version="1.0" encoding="utf-8"?>
<!-- Generator: Adobe Illustrator 24.0.2, SVG Export Plug-In . SVG Version: 6.00 Build 0)  -->
<svg version="1.1" id="Layer_1" xmlns="http://www.w3.org/2000/svg" xmlns:xlink="http://www.w3.org/1999/xlink" x="0px" y="0px"
	 viewBox="0 0 288 288" style="enable-background:new 0 0 288 288;" xml:space="preserve">
<style type="text/css">
	.st0{fill:#4D4D4D;}
	.st1{fill:#3E2700;}
	.st2{fill:#2B1800;}
	.st3{fill:#FF6565;}
	.st4{fill:#CB4E4E;}
	.st5{fill:#EFDBAB;}
	.st6{opacity:0.2;fill:#3E2700;}
</style>
<g>
	<ellipse class="st0" cx="141.5" cy="244.2" rx="57.7" ry="7.5"/>
	<g>
		<path class="st1" d="M133.3,238.1c-11.2-26.4-2.5-47.9-2.1-48.8l-6.5-2.7l-6.4-2.7c-0.5,1.1-10.9,26.3,1.2,57.3
			c-5.2,1.3-9.9,2.8-9.9,3.9c0,2.5,25.2,0.7,27,0C138.2,244.5,133.5,238.3,133.3,238.1z"/>
		<path class="st1" d="M153.1,238.1c11.2-26.4,2.5-47.9,2.1-48.8l6.5-2.7l6.4-2.7c0.5,1.1,10.9,26.3-1.2,57.3
			c5.2,1.3,9.9,2.8,9.9,3.9c0,2.5-25.2,0.7-27,0C148.2,244.5,152.9,238.3,153.1,238.1z"/>
		<path class="st1" d="M245,126c7.5-6-1.5-2.8-1.5-2.8c8.3-7.6-2-2.6-2-2.6s8.3-11-2.9-0.8c-0.7,0.7-1.5,1.2-2.3,1.8
			c-0.5-0.8-1.3-2-2.3-1.9c-1,0.1-0.3,1.9,0.3,3.1c-14.8,7.3-41.2-0.8-41.2-0.8s-20.4,10,3.2,15.4c23.6,5.3,41.3,0.4,49.9-7.7
			C254.9,121.6,245,126,245,126z"/>
		<path class="st1" d="M42.7,126c-7.5-6,1.5-2.8,1.5-2.8c-8.3-7.6,2-2.6,2-2.6s-8.3-11,2.9-0.8c0.7,0.7,1.5,1.2,2.3,1.8
			c0.5-0.8,1.3-2,2.3-1.9c1,0.1,0.3,1.9-0.3,3.1c14.8,7.3,41.2-0.8,41.2-0.8s20.4,10-3.2,15.4c-23.6,5.3-41.3,0.4-49.9-7.7
			C32.8,121.6,42.7,126,42.7,126z"/>
		<path class="st2" d="M128.7,198.3c1-5.4,2.3-8.7,2.5-9l-6.5-2.7l-6.4-2.7c-0.2,0.4-1.9,4.5-3.2,11.2
			C119.7,195.8,124.2,197,128.7,198.3z"/>
		<path class="st2" d="M170.8,192.4c-1.2-5.1-2.5-8.3-2.6-8.6l-6.4,2.7l-6.5,2.7c0.1,0.4,1.5,3.7,2.5,9.3
			C162.1,196.4,166.4,194.4,170.8,192.4z"/>
		<path class="st2" d="M222.2,136.9c-1.6-2.8-4.1-7.8-6.8-8.9c-1.4-0.6-2.7-1.4-3.7-2.4c-10.1-0.9-18.7-3.6-18.7-3.6
			s-20.4,10,3.2,15.4c10.3,2.3,19.4,2.7,27.1,1.7C223,138.4,222.6,137.6,222.2,136.9z"/>
		<path class="st2" d="M94.6,122c0,0-12.9,4-25.8,3.9c-4.4,3.7-8.7,7.6-12.8,11.5c9.2,2.7,21.2,3.2,35.4,0
			C115,132,94.6,122,94.6,122z"/>
		<path class="st3" d="M201.3,115.7c7.8,5.5,8.1,3.5,8.1,3.5c4.4-6-16.8-15.5-16.8-15.5s15.4,4.5,13-0.5
			c-2.2-4.3-16.7-11.3-16.7-11.3s8.6,1.7,8.2-2.2c-0.5-5-20.6-3.8-20.6-3.8c21.7-6.5-6.7-4.5-6.7-4.5s4-1,6.5-5.5s-20,3.5-20,3.5
			s14-11.5,4-10c-9.3,1.4-12,8.7-12.3,9.7c0.4-1.4,4.2-13.8,0-11c-3.2,2.1-4,4.1-5.1,7c-1.1-2.9-4.6-4.8-5.9-5.9
			c-3.5-2.9-2.9,0.5-1.3,4.7c-2.1-1.8-5.3-3.4-10.2-4.6c-9.8-2.3,4,10,4,10s-22.5-8-20-3.5s6.5,5.5,6.5,5.5s-28.4-2-6.7,4.5
			c0,0-20.1-1.2-20.6,3.8c-0.4,4,8.2,2.2,8.2,2.2s-14.5,7-16.7,11.3c-2.5,5,13,0.5,13,0.5s-21.2,9.5-16.8,15.5c0,0,0.3,2,8.1-3.5
			c0,0-21.2,25.8-17,32.8c1.7,2.8,6.7-0.6,7.2-2c-0.3,6.6-0.4,21.6,4.8,25.2c5.5,3.9,4.4,0.3,3.2-2.4c2.2,4.1,7.3,12.3,13.6,14.7
			c8.5,3.2-0.2-6.2-0.2-6.2s11,10,17.5,10.5c3.4,0.3,2.7-1.1,1.2-2.4c4.5,3.2,12.5,8.6,14.8,7.9c0.7-0.2,1.1-0.6,1.2-1.1
			c1.8,3.4,4.3,7.2,5.8,5.9c1.3-1.2,1.7-4.5,1.7-7.4c0.8,0.8,1.7,1.5,2.5,2.1c0.7,1,1.4,1.6,2.3,1.5c0.8,0.2,1.6-0.5,2.3-1.5
			c0.8-0.6,1.6-1.4,2.5-2.1c0,2.9,0.4,6.2,1.7,7.4c1.5,1.3,4-2.5,5.8-5.9c0.1,0.5,0.4,0.9,1.2,1.1c2.3,0.7,10.2-4.6,14.8-7.9
			c-1.5,1.3-2.2,2.6,1.2,2.4c6.5-0.5,17.5-10.5,17.5-10.5s-8.8,9.5-0.2,6.2c6.3-2.4,11.4-10.6,13.6-14.7c-1.2,2.7-2.3,6.4,3.2,2.4
			c5.1-3.7,7.7-18.5,3.9-26c0.5,1.4,4.8,8.9,6.5,6.1C221,144.7,201.3,115.7,201.3,115.7z"/>
		<g>
			<path class="st4" d="M109.9,74.6c-0.6,0.2-0.8,0.6-0.4,1.3c0.1,0.2,0.2,0.4,0.3,0.6c1.4-0.7,2.6-1.3,3.3-1.7
				c-0.5-0.1-0.9-0.1-1.3-0.2C111.2,74.6,110.5,74.7,109.9,74.6z"/>
			<path class="st4" d="M206.6,166.3c-8.5,3.2,0.2-6.2,0.2-6.2s-11,10-17.5,10.5c-3.4,0.3-2.7-1.1-1.2-2.4
				c-4.5,3.2-12.5,8.6-14.8,7.9c-0.7-0.2-1.1-0.6-1.2-1.1c-1.8,3.4-4.3,7.2-5.8,5.9c-1.3-1.2-1.7-4.5-1.7-7.4
				c-0.8,0.8-1.7,1.5-2.5,2.1c-0.7,1-1.4,1.6-2.3,1.5c-0.8,0.2-1.6-0.5-2.3-1.5c-0.8-0.6-1.6-1.4-2.5-2.1c0,2.9-0.4,6.2-1.7,7.4
				c-1.5,1.3-4-2.5-5.8-5.9c-0.1,0.5-0.4,0.9-1.2,1.1c-2.3,0.7-10.2-4.6-14.8-7.9c1.5,1.3,2.2,2.6-1.2,2.4C124,170,113,160,113,160
				s8.8,9.5,0.2,6.2c-6.3-2.4-11.4-10.6-13.6-14.7c1.2,2.7,2.3,6.4-3.2,2.4c-5.1-3.7-5-18.7-4.8-25.2c-0.5,1.4-5.5,4.8-7.2,2
				c-4.2-7,17-32.8,17-32.8c-7.8,5.5-8.1,3.5-8.1,3.5C89,95.5,110.3,86,110.3,86s-14.4,4.2-13.1,0c-4.3,0.4-8.3,1.4-8.5,3.6
				c-0.4,4,8.2,2.2,8.2,2.2s-14.5,7-16.7,11.3c-2.5,5,13,0.5,13,0.5s-21.2,9.5-16.8,15.5c0,0,0.3,2,8.1-3.5c0,0-21.2,25.8-17,32.8
				c1.7,2.8,6.7-0.6,7.2-2c-0.3,6.6-0.4,21.6,4.8,25.2c5.5,3.9,4.4,0.3,3.2-2.4c2.2,4.1,7.3,12.3,13.6,14.7c8.5,3.2-0.2-6.2-0.2-6.2
				s11,10,17.5,10.5c3.4,0.3,2.7-1.1,1.2-2.4c4.5,3.2,12.5,8.6,14.8,7.9c0.7-0.2,1.1-0.6,1.2-1.1c1.8,3.4,4.3,7.2,5.8,5.9
				c1.3-1.2,1.7-4.5,1.7-7.4c0.8,0.8,1.7,1.5,2.5,2.1c0.7,1,1.4,1.6,2.3,1.5c0.8,0.2,1.6-0.5,2.3-1.5c0.8-0.6,1.6-1.4,2.5-2.1
				c0,2.9,0.4,6.2,1.7,7.4c1.5,1.3,4-2.5,5.8-5.9c0.1,0.5,0.4,0.9,1.2,1.1c2.3,0.7,10.2-4.6,14.8-7.9c-1.5,1.3-2.2,2.6,1.2,2.4
				c6.5-0.5,17.5-10.5,17.5-10.5s-8.8,9.5-0.2,6.2c6.3-2.4,11.4-10.6,13.6-14.7c-1.2,2.7-2.3,6.4,3.2,2.4c1.9-1.4,3.5-4.3,4.5-7.8
				C209.4,164.9,208.1,165.7,206.6,166.3z"/>
		</g>
		<g>
			<path class="st5" d="M142.9,103c0,0-26.8-4.1-29.9,24.4c-3.2,28.5,21.8,32.3,33.4,30.9c17.6-2,30.6-14.8,22.7-36.8
				C162.3,102.8,142.9,103,142.9,103z"/>
			<g>
				<path class="st1" d="M118.6,122c0,2.4,1.4,4.4,3.2,4.4c1.8,0,3.2-2,3.2-4.4c0-2.4-1.4-4.4-3.2-4.4
					C120,117.6,118.6,119.6,118.6,122z"/>
				<path class="st1" d="M159.2,122c0,2.4,1.4,4.4,3.2,4.4s3.2-2,3.2-4.4c0-2.4-1.4-4.4-3.2-4.4S159.2,119.6,159.2,122z"/>
			</g>
			<g>
				<path class="st3" d="M130.6,141.2c7.8,3,16.6,2.8,24.2-0.9c2.5-1.2,3.2-4.8,1.9-7.1c-1.5-2.6-4.6-3.1-7.1-1.9
					c-5.1,2.5-11,1.9-16.2-0.1c-2.6-1-5.7,1.1-6.4,3.6C126.2,137.8,128,140.2,130.6,141.2L130.6,141.2z"/>
			</g>
			<g>
				<path class="st1" d="M156.7,133.2c-1.5-2.6-4.6-3.1-7.1-1.9c-5.1,2.5-11,1.9-16.2-0.1c-2.6-1-5.7,1.1-6.4,3.6
					c-0.8,2.9,1,5.4,3.6,6.4c1.1,0.4,2.2,0.8,3.4,1.1c0.4-3.8,3.2-7.4,8.1-7.4c4.9,0,7.4,3.5,7.6,7.3c1.8-0.5,3.5-1.1,5.2-1.9
					C157.4,139.1,158,135.5,156.7,133.2z"/>
			</g>
		</g>
		<path class="st5" d="M106.8,89.7c-8.1-4-13-10.2-14.8-17.8c2.7-0.1,5.3-0.8,7.7-1.9c6.1-2.7,9-8.5,9-15c-0.1-4.8-7.6-4.8-7.5,0
			c0,4-1.5,7.1-5.2,8.5c-1.9,0.7-3.1,1-4.9,0.9c0-1.1,0-2.2,0.1-3.3c0.4-5.8,2.3-12.4,4.7-17.2c2.1-4.3-4.3-8.1-6.5-3.8
			c-2,4-3.4,8.2-4.4,12.6c-2.5-0.9-4.2-2.6-4.9-5.4c-0.3-1.2-0.3-1.8-0.3-3.3c0-0.4,0-0.9,0.1-1.3c0-0.2,0-0.2,0-0.1
			c0.4-4.5-6.4-6.2-7.3-1.6c-0.6,3.2-0.4,6.6,0.6,9.6c1.7,5.1,5.7,8.1,10.5,9.4c-0.1,0.9-0.2,1.9-0.2,2.8
			c-0.8,14.4,6.5,26.8,19.4,33.2C107.3,98.3,111.1,91.8,106.8,89.7z"/>
		<path class="st5" d="M168.6,89.7c8.1-4,13-10.2,14.8-17.8c-2.7-0.1-5.3-0.8-7.7-1.9c-6.1-2.7-9-8.5-9-15c0.1-4.8,7.6-4.8,7.5,0
			c0,4,1.5,7.1,5.2,8.5c1.9,0.7,3.1,1,4.9,0.9c0-1.1,0-2.2-0.1-3.3c-0.4-5.8-2.3-12.4-4.7-17.2c-2.1-4.3,4.3-8.1,6.5-3.8
			c2,4,3.4,8.2,4.4,12.6c2.5-0.9,4.2-2.6,4.9-5.4c0.3-1.2,0.3-1.8,0.3-3.3c0-0.4,0-0.9-0.1-1.3c0-0.2,0-0.2,0-0.1
			c-0.4-4.5,6.4-6.2,7.3-1.6c0.6,3.2,0.4,6.6-0.6,9.6c-1.7,5.1-5.7,8.1-10.5,9.4c0.1,0.9,0.2,1.9,0.2,2.8
			c0.8,14.4-6.5,26.8-19.4,33.2C168,98.3,164.2,91.8,168.6,89.7z"/>
		<path class="st6" d="M106.8,89.7c-3.4-1.7-6.2-3.7-8.5-6.1c-3.2,0.3-6.5,0.2-9.8-0.3c3.3,5.4,8.2,9.8,14.4,12.9
			C107.3,98.3,111.1,91.8,106.8,89.7z"/>
		<path class="st6" d="M178.8,87.3c-1.4-0.5-2.8-1-4.2-1.6c-1.8,1.4-3.7,2.7-6,3.9c-4.3,2.2-0.5,8.6,3.8,6.5
			c4.5-2.2,8.3-5.2,11.3-8.7C182.1,87.9,180.4,87.9,178.8,87.3z"/>
		<path class="st3" d="M95.6,94.3c5.7,4.8,11.6,9.7,18.4,12.9c1.6,0.7,3.1,1.3,4.7,1.6c4.7-5.3,7.8-12.9,10-19.9
			c-0.4-2.1-0.8-4.2-1.4-6.3c-1.5-0.8-3.3-1.5-5.7-2.1c-7.6-1.8,3.1,7.7,3.1,7.7s-17.3-6.1-15.4-2.7c1.9,3.5,5,4.2,5,4.2
			s-21.9-1.5-5.2,3.5C109.2,93.3,100,92.7,95.6,94.3z"/>
		<path class="st3" d="M188,95.3c-5.7,4.8-11.6,9.7-18.4,12.9c-1.6,0.7-3.1,1.3-4.7,1.6c-4.7-5.3-7.8-12.9-10-19.9
			c0.4-2.1,0.8-4.2,1.4-6.3c1.5-0.8,3.3-1.5,5.7-2.1c7.6-1.8-3.1,7.7-3.1,7.7s17.3-6.1,15.4-2.7c-1.9,3.5-5,4.2-5,4.2
			s21.9-1.5,5.2,3.5C174.4,94.3,183.7,93.7,188,95.3z"/>
	</g>
</g>
</svg>
