<?xml version="1.0" encoding="utf-8"?>
<!-- Generator: Adobe Illustrator 24.0.2, SVG Export Plug-In . SVG Version: 6.00 Build 0)  -->
<svg version="1.1" id="Layer_1" xmlns="http://www.w3.org/2000/svg" xmlns:xlink="http://www.w3.org/1999/xlink" x="0px" y="0px"
	 viewBox="0 0 288 288" style="enable-background:new 0 0 288 288;" xml:space="preserve">
<style type="text/css">
	.st0{fill:#414042;}
	.st1{fill:#BCBEC0;}
	.st2{fill:#939598;}
	.st3{fill:#A7A9AC;}
	.st4{fill:#D1D3D4;}
	.st5{fill:#FFFFFF;}
	.st6{fill:#BE1E2D;}
	.st7{fill:#991323;}
	.st8{fill:#231F20;}
	.st9{fill:#110E0F;}
	.st10{fill:#808285;}
	.st11{fill:#FFF200;}
	.st12{fill:#0C0A0B;}
	.st13{fill:#6D6E71;}
	.st14{fill:#7F0B1F;}
	.st15{fill:#8B5E3C;}
	.st16{fill:#603913;}
	.st17{fill:#3A1E08;}
	.st18{fill:#47260B;}
	.st19{fill:#58595B;}
	.st20{fill:#2B1506;}
</style>
<g>
	<ellipse class="st0" cx="149" cy="232.6" rx="64.6" ry="10"/>
	<path class="st1" d="M179.5,142c0.3-0.3,0.6-0.5,0.9-0.8c0.2-0.2,0.3-0.3,0.5-0.5c0.2-0.2,0.4-0.3,0.5-0.5c0,0,0,0,0.1-0.1
		c0,0-0.1,0-0.1,0c-0.7,0.6-1.4,1.2-2.1,1.8c0,0.1,0,0.1,0.1,0.2C179.4,142,179.5,142,179.5,142z"/>
	<path class="st2" d="M195.5,106C195.4,106,195.4,106,195.5,106c-0.4,0.2-0.7,0.4-1,0.5c-0.3-5.1-1.5-10-3.4-14.4c0.1,0,0.3,0,0.4,0
		c0,0,0,0.1,0,0.1C194.1,96.5,195.3,101,195.5,106z"/>
	<path class="st3" d="M192.5,105.8c0.1,1.2,0.2,2.3,0.2,3.5c0,7.2-1.8,13.9-4.9,19.6c-1.8,1.8-3.6,3.6-5.6,5.2
		c-6.7,5.3-15.3,9.2-23.5,11.6v-28.3C171.4,117.2,183.1,112.9,192.5,105.8z"/>
	<path class="st2" d="M192.5,105.8c-1.3,1-2.7,2-4.2,2.9c0.2,4.2-0.1,8.6-0.6,12.7c-0.5,3.8-1.4,8.1-3.8,11.2
		c1.3-1.2,2.6-2.4,3.8-3.7c3.1-5.7,4.9-12.5,4.9-19.6C192.6,108.1,192.6,107,192.5,105.8z"/>
	<path class="st4" d="M188.7,91.6c-2.3-1.2-4.7-2.3-7.2-3.4c-7.1-3.2-14.9-6.5-23.6-8.5c-8.7,2-16.4,5.2-23.6,8.5
		c-2.5,1.1-4.9,2.3-7.2,3.5c-1,2.1-1.8,4.4-2.5,6.7c1.5,1.6,2.8,3.4,4.3,5c2,2.3,4.1,4.5,6,6.9c0.3,0.3,0.5,0.7,0.8,1
		c0.1,0.1,0.2,0.2,0.2,0.3c6.7,2.9,14.2,4.5,22,4.5c13,0,25-4.5,34.4-11.9C191.8,99.8,190.5,95.5,188.7,91.6z"/>
	<path class="st3" d="M157.9,81.9c0,1.8,0,3.7,0,5.5c0,3.5,0,7.1,0,10.6c0,3.7,0,7.3,0,11c0,2.3,0.2,4.8,0.1,7.1
		c13,0,24.9-4.5,34.2-11.8c-0.5-4.5-1.8-8.8-3.6-12.7c-2.3-1.2-4.7-2.3-7.2-3.4c-7.1-3.2-14.9-6.5-23.6-8.5c0,0,0,0,0,0
		C157.9,80.4,157.9,81.2,157.9,81.9z"/>
	<path class="st5" d="M129,103.4c0.6,0.7,1.3,1.4,1.9,2.1c1.3-6.8,4.1-13.1,7.5-19.1c-1.4,0.6-2.7,1.2-4,1.8
		c-2.5,1.1-4.9,2.3-7.2,3.5c-1,2.1-1.8,4.4-2.5,6.7C126.2,100,127.5,101.7,129,103.4z"/>
	<path class="st4" d="M187.7,89.8c-1.5-0.8-3.1-1.5-4.7-2.2c-7.5-3.4-15.6-6.9-24.7-8.9c0,0-0.1,0-0.1,0l-0.1,0c-0.2,0-0.4,0-0.6,0
		l-0.1,0c0,0,0,0-0.1,0c-9.1,2.1-17.2,5.5-24.7,8.9c-1.6,0.7-3.2,1.5-4.7,2.2c6.1-11.2,17.2-18.7,29.8-18.7
		C170.6,71.1,181.7,78.6,187.7,89.8z"/>
	<path class="st2" d="M177.1,80.2c1.8,2,3.7,4.4,5,6.9c0.3,0.1,0.7,0.3,1,0.4c1.6,0.7,3.2,1.5,4.7,2.2c-3.9-7.2-9.9-12.9-17.1-16.1
		C173,75.6,175.2,77.9,177.1,80.2z"/>
	<path class="st5" d="M145.9,75.8c1.7-1.5,3.6-2.9,5.7-4.1c-10,2-18.4,8.8-23.5,18c1.5-0.7,3.1-1.5,4.7-2.2c1.9-0.9,3.9-1.7,5.9-2.6
		C140.4,81.4,142.9,78.4,145.9,75.8z"/>
	<path class="st6" d="M90.5,113c0.1-1,0.2-2.1,0.3-3.1c-4.2,1.2-8.7,1.6-12.9,0.7c3.1,3.3,7.4,5.3,12.2,6.3
		C90.2,115.6,90.4,114.3,90.5,113z"/>
	<path class="st6" d="M163.5,56c-2.9-5.5-9.9-7.8-15.8-6.5c-20,4.3-20.2,29.6-30.7,43.2c-0.7,1-1.5,1.9-2.4,2.8
		c1-0.4,2.1-0.6,3.2-0.7c1.2,0,2.3,0.3,3.3,0.8c0.5-1.2,1.1-2.5,1.8-3.6c0.8-1.2,1.4-1.1,2.5-1c5.3-11.3,15.4-19.4,27.2-21.3v-0.7
		c0-2.9,2.4-5.2,5.2-5.2c2.9,0,5.2,2.4,5.2,5.2v0.7c0.7,0.1,1.3,0.2,2,0.4c0,0,0-0.1,0-0.1C165.7,65.3,165.7,60.1,163.5,56z"/>
	<path class="st7" d="M163.5,56c-2.9-5.5-9.9-7.8-15.8-6.5c-1.7,0.4-3.2,0.9-4.6,1.5c3.2-0.9,6.7-1,9.9,0.1c3.3,1.1,6,3.5,7.5,6.7
		c1.2,2.3,2.4,5.9,1.9,8.9c0.3,0.7,0.5,1.5,0.5,2.3v0.7c0.7,0.1,1.3,0.2,2,0.4c0,0,0-0.1,0-0.1C165.7,65.3,165.7,60.1,163.5,56z"/>
	<path class="st7" d="M90.2,116.1c-2.3-0.2-4.6-0.6-6.8-1.4c2.1,1,4.3,1.8,6.7,2.3C90.1,116.7,90.1,116.4,90.2,116.1z"/>
	<path class="st7" d="M148.8,70.4c1.3-0.4,2.5-0.6,3.9-0.9v-0.7c0-0.4,0.1-0.9,0.2-1.3C151.3,68.3,150,69.2,148.8,70.4z"/>
	<path class="st8" d="M161.2,68.9v0.5c-1.1-0.1-2.2-0.2-3.3-0.2c-1.1,0-2.3,0.1-3.4,0.2v-0.5c0-1.8,1.5-3.3,3.3-3.3
		C159.7,65.5,161.2,67,161.2,68.9z"/>
	<path class="st9" d="M159.5,66c0.2,1.1,0.2,2.2,0,3.2c0.6,0,1.2,0.1,1.7,0.1v-0.5C161.2,67.6,160.5,66.5,159.5,66z"/>
	<path class="st10" d="M182.8,135.2c-7,5.5-16.1,9.6-24.7,12c-0.1,0-0.1,0-0.2,0c0,0-0.1,0-0.1,0c-0.1,0-0.2,0-0.3,0
		c-4.1-1.1-8.3-2.7-12.3-4.5c-0.2,0.7-0.4,1.3-0.7,2c4.1,1.9,8.6,3,13.3,3h0.1c10.7,0,20.3-5.4,26.7-13.9
		C184.1,134.2,183.5,134.7,182.8,135.2z"/>
	<path class="st1" d="M137.7,113.7c1.9,2.2,3.8,4.5,5.4,7c1.3,1.6,2.5,3.3,3,5.4c0.4,1.7,0.4,3.4,0.2,5.1c0.5,1.8,0.5,3.9,0.3,5.6
		c-0.2,1.6-0.5,3.1-0.9,4.7c3.8,1.8,7.8,3.3,11.6,4.4v-28.4C150.4,117.3,143.8,116,137.7,113.7z"/>
	<path class="st2" d="M123.1,96.8c0.5-1.6,1.1-3.2,1.7-4.7c-0.2,0-0.3,0-0.5,0c0,0,0,0.1,0,0.1c-0.8,1.3-1.5,2.7-2,4
		C122.6,96.4,122.8,96.6,123.1,96.8z"/>
	<g>
		<path d="M184.9,120.5c0.2-1.4,0.5-2.8,0.7-4.2c0.1-0.8,0.3-1.5,0.7-2.2c0.7-1.1,1.8-1.5,2.1-0.1c0.3,1.3-0.1,3.1-0.3,4.4
			c-0.4,2.9-1.1,5.7-2.2,8.3c-0.1,0.3-0.3,0.7-0.6,0.9c-0.3,0.2-0.7,0.4-1,0.2c-0.5-0.3-0.5-1-0.4-1.6
			C184.3,124.3,184.6,122.4,184.9,120.5z"/>
		<path d="M178.5,124.1c0.2-1.6,0.3-3.2,0.5-4.9c0.1-0.9,0.2-1.8,0.6-2.6c0.7-1.3,1.9-1.8,2.4-0.3c0.4,1.4,0.1,3.5,0,5
			c-0.2,3.3-0.9,6.6-1.9,9.7c-0.1,0.4-0.3,0.8-0.6,1.1c-0.3,0.3-0.7,0.5-1.1,0.3c-0.6-0.3-0.7-1.1-0.6-1.8
			C178,128.5,178.3,126.3,178.5,124.1z"/>
		<path d="M171.6,127.6c0.1-1.7,0.2-3.5,0.4-5.2c0.1-0.9,0.1-1.9,0.5-2.8c0.7-1.4,2-2,2.5-0.4c0.5,1.5,0.3,3.8,0.2,5.4
			c-0.1,3.5-0.7,7.1-1.7,10.5c-0.1,0.4-0.3,0.9-0.6,1.2c-0.3,0.3-0.8,0.6-1.2,0.4c-0.7-0.2-0.8-1.2-0.7-1.9
			C171.3,132.4,171.4,130,171.6,127.6z"/>
		<path d="M163.5,130.3c0-1.9,0.1-3.8,0.1-5.6c0-1,0.1-2.1,0.5-3c0.6-1.5,2-2.3,2.7-0.5c0.6,1.6,0.5,4,0.5,5.8
			c0.1,3.8-0.4,7.6-1.3,11.4c-0.1,0.5-0.2,0.9-0.5,1.3c-0.3,0.4-0.8,0.6-1.3,0.5c-0.8-0.2-0.9-1.2-0.9-2
			C163.4,135.5,163.5,132.9,163.5,130.3z"/>
	</g>
	<path class="st1" d="M116.8,108.7l-0.2,8.6c0,0,0,0,0,0c0,0,0,0,0,0l49,62.1l4.3-3.4L116.8,108.7z"/>
	<path class="st4" d="M116.8,108.7l-0.2,8.6c0,0,0,0,0,0c0,0,0,0,0,0l49,62.1l4.3-3.4L116.8,108.7z"/>
	<path class="st1" d="M117.8,107.9l53.2,67.4l4.3-3.4l-49-62c0,0-0.1-0.1-0.1-0.1L117.8,107.9z"/>
	<path class="st11" d="M161.2,185.6c-0.2,0.2-0.3,0.5-0.1,0.7c0.2,0.2,0.5,0.3,0.7,0.1l21.4-17.1c0.2-0.2,0.3-0.5,0.1-0.7
		c-0.2-0.2-0.5-0.3-0.7-0.1L161.2,185.6z"/>
	<path class="st5" d="M136.3,121.7c-0.7,3.9-1.3,7.8-1.8,11.8c-0.3,2.7-0.5,5.5-0.7,8.2c0.3,0.5,0.7,0.9,1,1.4
		c0.8,1.1,1.6,2.2,2.5,3.2c0.6-3.6,0.7-7.4,1.1-10.8c0.4-3.2,1-6.5,1.5-9.7C138.7,124.5,137.4,123.2,136.3,121.7z"/>
	<path class="st5" d="M156,145.9c-1.5-1.7-3-3.5-4.4-5.2c-0.3,2.1-0.6,4.3-0.9,6.4c-0.5,4.3-0.8,8.8-1.4,13.3c0.1,0,0.1,0.1,0.2,0.2
		c0.4,0.5,0.7,1.1,1,1.6c0.6,0.8,1.2,1.5,1.8,2.3c1.3-5.3,2.4-10.7,3.3-16.2C155.7,147.4,155.9,146.7,156,145.9z"/>
	<path class="st8" d="M187.4,233.2c-4.6,0.1-10-0.4-13.5-3.1c-3.1-2.4-3.3-7-4.5-10.6c2,0.6,4.2,0.9,6.2,0.5
		c1.3-0.3,2.5-0.8,3.6-1.5c0.1,3,0.6,6,2.2,8.5C182.9,229.5,185.4,231.2,187.4,233.2z"/>
	<path class="st8" d="M136.6,218.9c-1.4-0.3-2.7-0.9-3.8-1.7c-0.1,3.3-0.6,6.7-2.4,9.5c-1.5,2.4-3.8,4.1-5.7,6.1
		c0.2,0.3,0.4,0.5,0.5,0.8c4.6,0,9.7-0.7,13.2-3.4c3.4-2.7,3.5-7.8,4.9-11.9C141,219.1,138.8,219.4,136.6,218.9z"/>
	<path class="st12" d="M172.9,225.2c0-0.4-0.1-0.7-0.2-1.1c-0.1-0.5-0.3-1-0.4-1.5c0,0,0,0,0-0.1c0,0,0,0,0-0.1
		c0,0.2,2.7-0.1,2.9-0.1c0.9-0.1,2-0.3,2.8-0.7c0.6-0.3,0.5-0.1,0.7-0.6c0.1-0.2-0.3-1.4-0.1-1.5c-0.9,0.6-2,1.1-3.1,1.3
		c-1.7,0.3-3.6,0.1-5.3-0.4c1.1,3.1,1.2,7.1,3.9,9.1c0.6,0.5,1.3,0.9,2,1.2c-1.1-1.2-1.9-2.7-2.6-4.2
		C173.4,226.2,173.1,225.7,172.9,225.2z"/>
	<path class="st12" d="M136.7,220.8c-1.1-0.2-2.2-0.7-3.1-1.3c0,0.3,0,0.6,0,0.8c1.6,1,3.3,1.4,5.2,1.6c0.2,0,0.4,0.2,0.4,0.4
		c-0.2,2.7-1.3,6.2-3.4,8.5c0.9-0.4,1.7-0.8,2.4-1.3c2.7-2.1,2.8-6,3.9-9.1C140.3,221,138.5,221.2,136.7,220.8z"/>
	<path class="st3" d="M181.4,205.6c1.3,5.2-0.4,12.6-6.7,13.4c-10.8,1.4-15.2-12.8-15-21.2c3.5-0.4,6.9-1.1,10.1-2.4
		c0.1,0.1,0.1,0.3,0.3,0.4c2.9,2.4,6.4,4.6,10.1,5.5C180.6,202.7,181,204.2,181.4,205.6z"/>
	<path class="st3" d="M152.6,198c0.1,8.5-4.4,22.4-15,21c-6.3-0.8-8-8.2-6.7-13.4c0.3-1.1,0.6-2.3,1-3.4c1.8-0.5,3.5-1.2,5.2-2.1
		c2.1-1.1,4.6-2.2,6.2-4.1C146.2,197.2,149.4,197.9,152.6,198z"/>
	<path class="st13" d="M164.1,209.6c-0.4-1.7-0.9-3.4-1.2-5.2c-0.2-1.2-0.5-2.6-0.2-3.8c0.8-2.7,5-2.6,7.2-2.2
		c1.8,0.3,3.4,1.3,5,2.1c1.9,1,3.6,1.6,5.6,2c-0.1-0.4-0.3-0.8-0.4-1.2c-3.7-0.9-7.2-3.1-10.1-5.5c-0.1-0.1-0.2-0.3-0.3-0.4
		c-3.2,1.2-6.6,2-10.1,2.4c-0.1,6.3,2.3,15.6,7.9,19.5C165.9,215,164.8,212.4,164.1,209.6z"/>
	<path class="st13" d="M143.2,196c-1.5,1.9-4,2.9-6.2,4.1c-1.7,0.9-3.4,1.7-5.2,2.1c-0.1,0.5-0.3,0.9-0.4,1.4
		c2.3-0.7,4.4-1.6,6.5-2.7c1.7-0.9,3.5-1.8,5.5-2.1c2.6-0.4,4.8,0.8,5.6,3.4c1,3.1,0.3,6.8-0.9,9.7c-0.7,1.6-1.6,3.3-2.7,4.8
		c5-4.1,7.2-12.7,7.1-18.7C149.4,197.9,146.2,197.2,143.2,196z"/>
	<path class="st6" d="M179.9,195.6l3.3,4.2c-4.2-0.2-8.4-2.7-11.6-5.3c0.7-0.3,1.4-0.7,2.1-1.1c0.1,0,0.2-0.1,0.3-0.1
		C175.5,195.1,177.7,195.8,179.9,195.6z"/>
	<path class="st14" d="M174.8,195.3c0.3-0.2,0.6-0.3,0.9-0.5c-0.6-0.3-1.2-0.8-1.7-1.4c-0.1,0-0.2,0.1-0.3,0.1
		c-0.7,0.4-1.4,0.8-2.1,1.1c0.6,0.5,1.2,0.9,1.8,1.4C173.9,195.8,174.4,195.6,174.8,195.3z"/>
	<path class="st6" d="M141.3,195.2c-1.4,1.5-3.5,2.3-5.3,3.2c-2.8,1.5-5.5,2.4-8.7,2.6c1.7-3.8,3.6-7.8,6.7-10.5
		c0.9,0.9,1.9,1.6,3,2.4C138.4,193.8,139.8,194.5,141.3,195.2z"/>
	<path class="st14" d="M136.5,194.9c1,0.7,2.1,1.1,3.1,1.6c0.6-0.4,1.2-0.8,1.6-1.3c-1.5-0.7-2.9-1.4-4.2-2.3
		c-1.1-0.7-2.1-1.5-3-2.4c-0.4,0.3-0.8,0.7-1.1,1.1C134,192.8,135.1,193.9,136.5,194.9z"/>
	<path class="st15" d="M134.4,143L134.4,143C134.4,143.1,134.4,143.1,134.4,143c0,0.2,0,0.4,0,0.6c-0.1,0.1-0.1,0.2-0.1,0.3
		c-0.2,6.5-1.9,12.9-3.6,19.2c-1.8,6.2-3.7,12.5-6.7,18.2c-0.5,0.9-1,1.8-1.6,2.8l5.8-49L134.4,143z"/>
	<path class="st15" d="M120.1,124.9l7.5,9.5l-6,50.8c-2.4,3.2-5.5,5.8-9.3,6.1L120.1,124.9z"/>
	<path class="st15" d="M115.1,118.6l4.4,5.6l-7.9,67.1c-0.9,0-1.8-0.2-2.8-0.5c-2.2-0.7-3.9-2-5.3-3.6l9.6-81.3
		c0.5-0.1,0.9-0.2,1.4-0.4c0,0,0,0,0.1,0c0.2,0.2,0.3,0.3,0.5,0.5c-0.1,0.1-0.2,0.3-0.2,0.5l-0.3,11.1c0,0.2,0,0.4,0.1,0.5
		c0,0.1,0.1,0.1,0.1,0.2c0,0.1,0.1,0.1,0.1,0.2C115,118.5,115.1,118.5,115.1,118.6z"/>
	<path class="st15" d="M112.4,106l-9.5,80.5c-1.8-2.3-3-5.2-3.9-8c-1.2-3.6-2-7.4-2.4-11.2l6.7-57.2
		C106.2,108.4,109.2,106.9,112.4,106z"/>
	<path class="st15" d="M102.7,110.5l-6.3,53.9c-0.2-2.5-0.3-5-0.4-7.5c-0.2-7-0.2-14,0.1-21c0.3-7.3,0.4-14.9,2-22
		C99.5,112.7,101,111.6,102.7,110.5z"/>
	<path class="st16" d="M134.4,143l-1.5-1.9c0.1,1.1-0.3,2.4-0.5,3.5c-0.2,1.4-0.4,2.8-0.6,4.3c-0.4,2.8-0.6,5.7-0.9,8.5
		c-0.2,2.3-0.4,4.7-0.7,7.1c0.1-0.5,0.3-0.9,0.4-1.4c1.8-6.3,3.5-12.6,3.6-19.2c0-0.1,0-0.3,0.1-0.3
		C134.4,143.4,134.4,143.3,134.4,143C134.4,143.1,134.4,143.1,134.4,143L134.4,143z"/>
	<path class="st16" d="M126.7,133.3c-0.7,9.7-2.3,19.4-3.4,29c-0.6,4.9-1.2,9.8-1.6,14.8c-0.2,2.9-0.4,5.8-0.7,8.7
		c0.2-0.2,0.3-0.4,0.5-0.7l6-50.8L126.7,133.3z"/>
	<path class="st16" d="M118.3,122.6c-0.4,1.4-0.3,3.3-0.3,4.7c-0.1,2.1-0.4,4.2-0.8,6.3c-1.9,10.8-3.4,21.5-4.2,32.4
		c-0.3,5.1-0.5,10.1-1,15.2c-0.3,3.3-0.7,6.7-1.4,10c0.4,0,0.7,0.1,1.1,0.1l7.9-67.1L118.3,122.6z"/>
	<path class="st16" d="M110.9,106.5c0.2,5.4-0.4,11-1,16.4c-1.3,11.2-3.7,22.3-5,33.5c-0.6,5.5-0.9,11.1-1.3,16.7
		c-0.3,4-0.6,8.2-1.5,12.1c0.3,0.4,0.6,0.9,0.9,1.3l9.5-80.5C111.9,106.1,111.4,106.3,110.9,106.5z"/>
	<path class="st16" d="M101,111.6c0.2,8.7-1.1,17.4-2.3,25.9c-0.9,6-1.6,12.2-2.8,18.2c0,0.4,0,0.7,0,1.1c0.1,2.5,0.2,5,0.4,7.5
		l6.3-53.9C102.1,110.9,101.5,111.3,101,111.6z"/>
	<path class="st13" d="M145.4,125.6c0.5,1.8,0.4,3.7,0.2,5.5l-1.4-1.8c0-0.3,0-0.6,0.1-0.9c0-0.6,0-1.3-0.2-1.9
		c-0.7-3.2-3.4-6.2-5.4-8.8c-2.7-3.5-5.6-6.9-8.3-10.4c-3.4-4.5-7.1-8.5-11.3-12.1c0,0,0.1,0,0.1,0c0,0,0.1,0,0.2,0c0,0,0,0,0,0
		c0,0,0,0,0,0c0,0,0,0,0.1,0c0.2,0.2,0.4,0.4,0.7,0.6c5.3,4,9.3,9,13.3,14.2c2.1,2.8,4.5,5.2,6.7,7.8
		C142.2,120.3,144.5,122.6,145.4,125.6z"/>
	<path class="st13" d="M141.7,152.2l1.1,1.4c-0.7,4.1-1.6,8.1-2.7,12c-2.7,9.3-5.7,19.4-12.3,26.7c-1.5,1.6-3.1,3-4.8,4.1
		c7.3-5.9,11-15.7,13.8-24.3C138.8,165.6,140.6,159,141.7,152.2z"/>
	<path class="st3" d="M142.4,126.3c0.1,0.3,0.1,0.6,0.1,0.9c0,0-14.7-18.6-14.7-18.6c0,0-0.1-0.1-0.1-0.1c-0.1-0.1-0.2-0.2-0.2-0.3
		c0,0-0.1-0.1-0.1-0.1c-0.1-0.1-0.3-0.2-0.4-0.2l-10-2.1c0-0.1-0.1-0.2-0.2-0.3c-1.1-1-1.6-1.5-3.1-1.1c-2,0.5-4,1.2-6,2.1
		c-3.8,1.7-7.3,4-10.6,6.5c-0.2,0.1-0.3,0.2-0.3,0.4c-1.7,7.5-1.8,15.5-2.1,23.2c-0.3,8.3-0.4,16.8,0.1,25.1
		c0.4,7.3,1.1,15.1,4.4,21.7c1.6,3.1,3.9,5.9,7,7.6c6.4,3.5,13.6-0.3,16.9-6.1c5.1-9.1,8.6-19.7,10.9-29.8c0.4-1.7,0.7-3.4,1-5.2
		c0.1-0.9,1-4.5,0.5-5.2l4.4,5.5c-0.8,5.2-1.8,10.5-3.3,15.6c-2.7,9.3-5.7,19.4-12.3,26.7c-3.9,4.4-9,7.2-15.1,6
		c-5.7-1.1-10.8-5-13.5-10.2c-2.7-5.3-3.6-11.7-4.6-17.5c-3.2-19.5-2-39.5,0.6-59c0.1-1.1,0.3-2.1,0.6-3.1c4-2.7,8.3-5.1,12.6-7.4
		c3.8-2,7.9-3.4,11.7-5.3c5.3,4,9.4,9,13.4,14.3c3.2,4.3,6.7,8.3,10.1,12.5C141.1,123.8,142.1,124.9,142.4,126.3z"/>
	<path class="st2" d="M135.1,149.7C135.1,149.8,135.1,149.8,135.1,149.7c0.1,4.7-0.7,9.4-1.6,13.8c-1.7,8.1-4.2,16.4-8.7,23.5
		c-3.4,5.4-8.3,10.2-14.6,11.5c5.6,0.7,10.4-2,14.2-6.1c6.6-7.3,9.6-17.4,12.3-26.7c1.5-5.1,2.5-10.3,3.3-15.6l-4.4-5.5
		C136.1,145.2,135.2,148.8,135.1,149.7z"/>
	<path class="st13" d="M135.5,147.7c1.5,1.6,2.8,3.5,4,5.5c0.2-1,0.3-2.1,0.5-3.1l-4.4-5.5C135.9,144.9,135.7,146.4,135.5,147.7z"/>
	<path class="st5" d="M94.3,177.9c-1.3-7-2.3-14-2.8-21.2c-1.1-15.4-0.6-31.4,2.9-46.5c0-0.1,0.1-0.1,0.2-0.1c0.3-1.7,3-3.6,4.2-4.6
		c2.4-1.8,5-3.4,7.6-4.7c3.4-1.7,7-3.4,10.7-4.7c-0.1-0.1-0.2-0.2-0.4-0.3c-3.8,1.9-7.9,3.4-11.7,5.3c-4.3,2.2-8.5,4.7-12.6,7.4
		c-0.3,1-0.4,2.1-0.6,3.1c-2.6,19.5-3.8,39.5-0.6,59c1,5.8,1.8,12.2,4.6,17.5c0.3,0.6,0.7,1.2,1,1.7C95.7,186,95,181.9,94.3,177.9z"
		/>
	<path class="st1" d="M206.2,150.6c-2.6,1.3-5.2,2.6-8.1,2.6c-2.8,0.1-5.6-0.6-8.3-1.2c-5.2-1.1-10.5-3.3-13.3-8
		c0.1,0,0.1-0.1,0.2-0.1c3.4-2,6.3-4.9,8.7-8c3.2,0,6.6,1.2,9,2.1C200.3,140.2,204.7,144.4,206.2,150.6z"/>
	<path class="st2" d="M189,136.2c-1.2-0.3-2.4-0.4-3.6-0.4c-1.9,2.5-4.2,4.9-6.7,6.8c0.1,0.2-0.1,0.4-0.3,0.3c0,0,0,0-0.1-0.1
		c-0.5,0.4-1,0.7-1.6,1c-0.1,0-0.1,0.1-0.2,0.1c0.2,0.3,0.4,0.6,0.6,0.9C182.4,144.9,186.3,140.5,189,136.2z"/>
	<path class="st5" d="M204.4,146c-0.1,0.3-0.2,0.6-0.4,0.8c-2.5,3.7-9,3.4-12.8,3.2c-3.9-0.3-8.9-0.8-12.3-3.1c2.9,2.7,7,4.2,10.9,5
		c2.7,0.6,5.5,1.3,8.3,1.2c2.9-0.1,5.5-1.3,8.1-2.6C205.8,148.9,205.2,147.4,204.4,146z"/>
	<path class="st16" d="M200.9,158.4c0.2,0.5-3.9,0.8-4.2,0.8c-1.6-0.1-3.2-0.4-4.8-0.8c-1.6-0.4-3.2-1-4.7-1.7
		c-1.6-0.7-3-1.6-4.4-2.6c-1.3-1-2.6-2.1-3.7-3.3c-1.1-1.2-1.7-2.8-2.7-4c2.4,2.8,5.7,4.6,9.1,5.8c3.8,1.3,7.8,2.2,11.8,2.4
		c0.8,0,1.6,0,2.4-0.1C200,156.1,200.5,157.2,200.9,158.4z"/>
	<path class="st17" d="M187.3,154.9c4,1.9,8.6,3,13,1.8c-0.2-0.6-0.4-1.2-0.6-1.8c-0.8,0.1-1.6,0.2-2.4,0.1c-4.1-0.1-8-1-11.8-2.4
		c-2.3-0.8-4.6-1.9-6.6-3.4C181.4,151.6,184.3,153.5,187.3,154.9z"/>
	<path class="st2" d="M191.3,160.3c0,1.7-0.3,3.4-0.7,5c-0.2-0.2-0.4-0.5-0.6-0.7c-3.2-3.3-7.3-2.7-10.4-0.3
		c-0.1-3.4-0.5-6.8-0.8-10.3c0-0.2-0.1-0.4-0.2-0.6l0.2-0.2c2.6,2.5,5.7,4.5,9,5.8C188.9,159.5,190.1,159.9,191.3,160.3z"/>
	<path class="st10" d="M181.2,159.5c-0.6-1.3-1.3-2.6-2.2-3.7c0.3,2.8,0.5,5.6,0.6,8.5c0.9-0.7,1.8-1.2,2.8-1.5
		C181.9,161.8,181.6,160.5,181.2,159.5z"/>
	<path class="st18" d="M186.4,191.8l4.1,5.2c-0.1,0.3-0.2,0.6-0.4,0.9c-0.5,0.8-1.2,1.5-2.2,1.8c-0.4,0.1-0.9,0.2-1.3,0.3l-3.9-5
		c0.3-0.1,0.5-0.2,0.8-0.3C184.9,194.1,185.8,193.1,186.4,191.8z"/>
	<path class="st10" d="M189.7,167.2c1.7,3-0.3,6-1.4,8.8c-0.9,2.4-1.8,4.7-3.4,6.6c-1.1-2.2-2.7-4.2-4.7-4.5c-0.5-0.1-0.9,0-1.3,0.1
		l-1.5-1.8l7-5.6c1.1-0.8,1.2-2.4,0.4-3.5c-0.4-0.4-0.8-0.7-1.3-0.8c-0.7-0.2-1.5,0-2.1,0.5l-3.4,2.7c0.4-0.6,0.8-1.2,1.3-1.8
		c0,0,0.1-0.1,0.1-0.1c0.2-0.1,0.4-0.4,0.4-0.8C182.5,164,187.1,162.8,189.7,167.2z"/>
	<path class="st19" d="M183.5,166.5c0.5,0.1,1,0.4,1.3,0.8c0.1,0.1,0.2,0.2,0.2,0.4c0.3-1.1,0.7-2.2,1-3.3c-2.2-0.4-4.6,0.7-6.3,2.6
		c0,0.4-0.2,0.6-0.4,0.8c0,0-0.1,0.1-0.1,0.1c-0.5,0.5-0.9,1.2-1.3,1.8l3.4-2.7C182,166.4,182.7,166.3,183.5,166.5z"/>
	<path class="st19" d="M183.7,171.9c0.1-0.3,0.2-0.6,0.3-0.8l-6.6,5.3l1.5,1.8c0.4-0.1,0.9-0.2,1.3-0.1c0.3,0,0.5,0.1,0.7,0.2
		C182,176.2,182.9,174.2,183.7,171.9z"/>
	<path class="st10" d="M183.3,184c1.1,2,2.5,5.1,1.2,7.4c-1.6,2.8-6.6,3.1-8.8,1c1.8-2,0.7-5.8-1.8-7.4c1.5-0.9,2.6-2.3,3.9-3.6
		c0.8-0.8,1.5-1.6,2.6-1.1C181.7,180.8,182.7,182.8,183.3,184z"/>
	<path class="st1" d="M178.8,153.3l-0.2,0.2c-0.5-0.6-1.8-0.4-1.7,0.6c0.4,4,0.8,8.1,0.8,12.1c-0.5,0.7-1,1.4-1.4,2.2
		c0,0.1-0.1,0.1-0.1,0.2c-0.2,0.3-0.4,0.6-0.6,0.9l-2.9-3.7c-0.6-0.7-1.2-1.4-1.7-2.2l-0.2-0.2c0,0,0,0,0,0c0,0,0,0,0,0
		c-0.1-0.1-0.2-0.3-0.3-0.4c-0.3-0.4-0.7-0.8-1-1.2c0,0,0,0,0,0c0,0-0.1-0.1-0.1-0.1c0,0,0,0,0-0.1l-2.4-3.1
		c-0.3-0.3-0.5-0.6-0.8-0.9c-0.3-0.4-0.6-0.8-0.9-1.2c0,0,0,0,0,0l-5.5-7c2.1-0.1,4.1-0.4,6.1-0.9c2.7-0.7,5.3-1.7,7.7-3
		c0.1,0.4,0.2,0.8,0.3,1.2c0.6,1.2,1.3,2.4,2,3.5C177,151.3,177.9,152.4,178.8,153.3z"/>
	<path class="st2" d="M176.1,161.4c-0.6,1.8-1.1,4.2-2.1,5.7l1.8,2.3c0.2-0.3,0.4-0.6,0.6-0.9c0-0.1,0-0.1,0.1-0.2
		c0.4-0.8,0.8-1.5,1.4-2.2c-0.1-2.9-0.3-5.8-0.5-8.7C177,158.8,176.5,160.1,176.1,161.4z"/>
	<path class="st2" d="M174.5,147.5c-0.1-0.3-0.3-0.5-0.4-0.8c-0.1-0.4-0.2-0.8-0.3-1.2c-2.4,1.3-5,2.3-7.7,3c-2,0.5-4,0.8-6.1,0.9
		l1.9,2.4C166.4,151.4,170.8,150,174.5,147.5z"/>
	<path class="st18" d="M175.4,177.9l1.3,1.7c-1.2,1.1-2.3,2.6-3.5,3.5l-1.7-2.1c0.5-0.4,0.9-0.7,1.4-1.1c0,0,0,0,0.1,0
		c0.7-0.6,1.4-1.2,2.1-1.8L175.4,177.9z"/>
	<path class="st20" d="M184.5,194.1c-0.3,0.2-0.7,0.5-1.2,0.7c-0.3,0.1-0.5,0.2-0.8,0.3l3.9,5c0.5-0.1,1-0.2,1.3-0.3
		c0.3-0.1,0.5-0.2,0.7-0.3C187.3,197.6,185.9,195.8,184.5,194.1z"/>
	<path class="st20" d="M173.7,179.3c-0.2,0.2-0.5,0.4-0.7,0.6c0,0,0,0-0.1,0c-0.5,0.3-0.9,0.7-1.4,1.1l1.7,2.1
		c0.7-0.5,1.3-1.2,2-1.9C174.7,180.6,174.2,179.9,173.7,179.3z"/>
	<path class="st10" d="M174.7,189.4c0.1,0.4,0,0.9-0.2,1.2c-0.1,0.2-0.2,0.3-0.4,0.4c-0.2,0.2-0.5,0.4-0.8,0.5
		c-0.2,0.1-0.4,0.2-0.6,0.2c-0.4,0.1-0.9-0.1-1.2-0.4c-0.7-0.5-1.1-1.4-1.4-2.2c-0.3-1-0.8-2.8,0.7-3
		C172.8,185.7,174.5,187.7,174.7,189.4z"/>
	<path class="st19" d="M175.4,186.4c0.8-0.8,1.6-1.5,2.9-1c3.2,1.1,2.5,6,5.6,6.8c0.2-0.2,0.4-0.5,0.6-0.7c1.3-2.2-0.1-5.4-1.2-7.4
		c-0.7-1.2-1.6-3.2-2.9-3.8c-1.1-0.5-1.8,0.3-2.6,1.1c-1.3,1.3-2.4,2.7-3.9,3.6C174.5,185.3,175,185.8,175.4,186.4z"/>
	<path class="st19" d="M174,187.6c-0.7-1-1.9-1.8-3.1-1.5c-1.2,0.2-1.1,1.4-0.9,2.4C171.4,188.8,172.8,188.4,174,187.6z"/>
	<path class="st1" d="M169.6,182.6l0.9,1.2c-3.8,0.6-3.1,7-0.1,9.2c-4.6,2.1-9.8,3-15,3.1c-5.4,0.1-10.2-1-15.1-3.5
		c-1.8-0.9-3.4-2-4.8-3.4c-0.5-0.5-1.4-1.1-1.9-1.8c0.5-0.9,1-1.9,1.5-2.8c0.8-0.5,1.3-1.4,1.9-2c0.6-0.6,1.2-1.1,1.4-1.9
		c0.1-0.4,0.2-0.7,0.2-1.1c0-0.3,0-0.7,0-1.1c-0.1-1.2-0.2-1.7,0.2-2.8c0.4-1.2,0.8-2.3,1.2-3.5c1.8-5.4,3.3-10.9,4.4-16.4l7.7,9.8
		c0,0,0,0,0,0c0.4,0.4,0.8,0.9,1.1,1.4c0.7,0.8,1.4,1.6,2,2.5l1.1,1.4c0,0.1-0.1,0.2-0.1,0.3v12.2c0,0.8,1.3,0.8,1.3,0v-11l1.2,1.5
		c0,0,0,0,0,0c0,0.1,0.1,0.1,0.1,0.1c0.3,0.4,0.7,0.8,1,1.3c0,0,0,0,0,0l1.6,2c0.4,0.5,0.8,1.1,1.2,1.6c0.2,0.2,0.4,0.4,0.5,0.6
		c0,0,0,0,0,0.1l0.9,1.2l-4.2,3.4c-1.1,0.8-1.2,2.4-0.4,3.5c0.8,1.1,2.4,1.2,3.5,0.4l2.4-1.9c0.4-0.4,0.9-0.8,1.3-1.1
		c0.2-0.2,0.4-0.3,0.6-0.5c0,0,0.1,0,0.1-0.1c0,0,0,0,0.1,0c0.1-0.1,0.1-0.1,0.2-0.2c0,0,0,0,0,0L169.6,182.6z"/>
	<path class="st5" d="M168.1,188.7c-4.2,1.7-8.8,2.7-13.3,3.1c-3.6,0.3-7.4,0.1-11-0.9c2.8,1.4,5.9,2.2,9,2.8
		c2.9,0.6,5.9,0.4,8.8,0.1c2.7-0.3,5.6-1.1,8.3-0.7c0,0,0,0,0,0c0.2-0.1,0.3-0.1,0.5-0.2C169.2,192.1,168.4,190.4,168.1,188.7z"/>
	<path class="st2" d="M151.3,164.4l-6.9-8.7c-1.1,5.6-2.6,11-4.4,16.4c-0.4,1.2-0.8,2.3-1.2,3.5c-0.4,1.1-0.3,1.6-0.2,2.8
		c0.1,0.4,0.1,0.8,0,1.1c0,0.4-0.1,0.7-0.2,1.1c-0.3,0.8-0.8,1.3-1.4,1.9c-0.7,0.6-1.2,1.5-1.9,2c-0.5,0.9-1,1.9-1.5,2.8
		c0.5,0.7,1.4,1.3,1.9,1.8c0.4,0.4,0.9,0.8,1.3,1.2C145.3,184.7,149.1,173.9,151.3,164.4z"/>
	<path class="st16" d="M134.9,148.1c0.3-1,0.7-1.9,0.9-2.9c-2.1-3-4.6-5.8-6.7-8.8c-0.1-0.1-0.2-0.3-0.3-0.4
		c-1.9-2.6-3.7-5.2-5.5-7.8c-2.1-3-4.2-5.9-6.6-8.7c-0.6-0.7-1.1-1.4-1.4-2.1c-0.1-0.9-0.1-1.9-0.1-2.8c0-1.1,0.2-2.3-0.1-3.2
		c0.2-0.2,0.2-0.5,0.2-0.8c0.1,0,0.3,0,0.4-0.1c0.8-0.2,0.7-1.3,0-1.5c-1-0.3-1-0.3-2.1-0.3c-0.6,0-1,0.5-1.1,1.1
		c-0.2,3.1-0.4,6.7,0.3,9.9c0.7,0.9,1.4,1.8,2.1,2.8c2.5,2.8,4.7,6,6.9,9.1c0.9,1.2,1.8,2.4,2.7,3.5c2.1,2.7,4.1,5.3,6.2,8
		C132.2,144.7,133.7,146.3,134.9,148.1C134.9,148.1,134.9,148.1,134.9,148.1z"/>
	<path d="M208.3,150.8C208.3,150.8,208.2,150.8,208.3,150.8c-1.6-7.1-6.4-12.1-13.1-14.7c-2.3-0.9-5.4-1.9-8.4-2.2
		c0.5-0.8,1.1-1.6,1.5-2.4c2.9-4.7,4.9-9.9,5.7-15.3c0.2-1.3,0.4-2.6,0.4-3.9c0.1-1,0.1-2,0.1-3.1c0-0.4,0-0.8,0-1.2
		c0.5-0.3,0.9-0.6,1.4-0.9c0.2-0.1,0.4-0.2,0.5-0.3c0.2-0.2,0.3-0.4,0.3-0.6c0,0,0,0,0,0c0-3.3-0.6-6.7-1.8-9.8
		c-0.6-1.6-1.3-3.1-2.2-4.5c-0.8-1.2-1.3-1.1-2.4-1c-4.8-10.1-13.4-17.7-23.6-20.5c0.1-0.1,0.2-0.3,0.2-0.5
		c0.9-7.2,0.1-15.6-6.5-19.8c-7.7-5-16.9-2.6-23.6,2.9c-7.2,5.9-10.4,14.9-13.6,23.3c-2.9,7.7-6.6,14.6-12.4,20.1
		c-2.3,1-4.7,2-7,3.2c-4.6,2.4-9.1,5-13.4,8c-0.1,0.3-0.1,0.5-0.2,0.8c-5,1.4-10.1,1.6-14.9-0.3c-0.8-0.3-1.5,0.7-1.1,1.4
		c3.3,5.1,8.6,7.9,14.5,9.3c0,0.2-0.1,0.5-0.1,0.7c-0.8,5.9-1.3,11.9-1.6,17.8c-0.4,11.6,0.2,23.2,2.2,34.6c1,6,2,12.7,5,18.1
		c2,3.5,5.1,6.4,8.7,8.3c1.7,0.9,3.6,1.6,5.6,2c2.5,0.5,5.5,0.5,8.1,0.3c2.7-0.2,5.3-1.1,7.6-2.6c1.6-1,3-2.3,4.2-3.6
		c-1.4,2.3-2.6,4.9-3.7,7.3c-0.4,0.9,0.6,1.7,1.3,1.4c0.1,0,0.2,0.1,0.4,0.1c1,0,2-0.1,3-0.3c-0.7,2.1-1.3,4.3-1.4,6.6
		c-0.1,3.2,1.3,6.6,3.6,8.9c-0.1,0.1-0.2,0.3-0.2,0.6c0,3.4-0.7,6.5-3.2,9c-1.7,1.6-3.4,3-4.8,4.9c-0.4,0.6,0.2,1.4,0.8,1.5
		c4.6,0.3,10.3,0,14.4-2.6c4-2.6,3.4-7.5,5.3-11.3c0.1-0.2,0.1-0.4,0.1-0.6c2.3-1.2,4.4-3,5.7-4.9c3-4.4,4.5-11.2,4.5-16.5
		c1.1,0,2.1,0,3.2-0.1c-0.1,5.4,1.4,12.2,4.5,16.6c1.3,1.9,3.4,3.7,5.7,4.9c0,0.2,0,0.4,0.1,0.6c1.9,3.8,1.4,8.8,5.4,11.3
		c4,2.6,9.7,2.9,14.4,2.6c0.7,0,1.3-0.8,0.8-1.5c-1.3-1.9-3.1-3.3-4.8-4.9c-2.5-2.5-3.2-5.5-3.2-9c0-0.2-0.1-0.4-0.2-0.6
		c2.3-2.3,3.6-5.8,3.6-8.9c-0.1-2.6-0.8-5.1-1.7-7.5c0.8,0.1,1.7,0.1,2.5,0.1l0.1,0.1c2.7,0.7,5.7-1.1,7.2-3.6
		c0.3-0.8,0.5-1.7,0.5-2.6l-5.6-7.1c-0.1-0.7-0.2-1.4-0.4-2.1c-0.2-0.5-0.4-1.1-0.6-1.8c0.1,0,0.1-0.1,0.2-0.1c2.7-3,4-7,5.4-10.7
		c0.8-2.1,1.1-4,0.6-5.9c0.7-2.2,1.3-4.6,1.3-7c3.3,0.7,6.9,0.7,9.3-1.2c0.3-0.3,0.5-0.7,0.3-1.1c-0.4-1.3-0.9-2.6-1.3-4
		c2.1-0.6,4.1-1.6,6.2-2.6C208.2,151.7,208.3,151.2,208.3,150.8z M187.7,129c-1.8,1.8-3.6,3.6-5.6,5.2c-0.1,0.1-0.1,0.1-0.2,0.1
		c-0.1,0-0.2,0.1-0.3,0.1c-0.1,0.1-0.3,0.3-0.4,0.4c-6.6,4.9-14.8,8.6-22.6,10.9v-28.3c12.8-0.1,24.6-4.5,33.9-11.6
		c0.1,1.2,0.2,2.3,0.2,3.5C192.6,116.5,190.8,123.2,187.7,129z M173.9,184.9c1.5-0.9,2.6-2.3,3.9-3.6c0.8-0.8,1.5-1.6,2.6-1.1
		c1.3,0.5,2.2,2.6,2.9,3.8c1.1,2,2.5,5.1,1.2,7.4c-1.6,2.8-6.6,3.1-8.8,1C177.5,190.3,176.4,186.5,173.9,184.9z M174.5,190.6
		c-0.1,0.2-0.2,0.3-0.4,0.4c-0.2,0.2-0.5,0.4-0.8,0.5c-0.2,0.1-0.4,0.2-0.6,0.2c-0.4,0.1-0.9-0.1-1.2-0.4c-0.7-0.5-1.1-1.4-1.4-2.2
		c-0.3-1-0.8-2.8,0.7-3c1.9-0.4,3.6,1.6,3.8,3.3C174.8,189.8,174.7,190.3,174.5,190.6z M173.2,183.1l-1.7-2.1
		c0.5-0.4,0.9-0.7,1.4-1.1c0,0,0,0,0.1,0c0.7-0.6,1.4-1.2,2.1-1.8l0.3-0.2l1.3,1.7C175.5,180.7,174.4,182.2,173.2,183.1z
		 M161.8,186.4c-0.2,0.2-0.6,0.1-0.7-0.1c-0.2-0.2-0.1-0.6,0.1-0.7l21.4-17.2c0.2-0.2,0.6-0.1,0.7,0.1c0.2,0.2,0.1,0.6-0.1,0.7
		L161.8,186.4z M116.6,117.4C116.6,117.4,116.6,117.4,116.6,117.4C116.6,117.3,116.6,117.3,116.6,117.4l0.2-8.7l53.2,67.3l-4.3,3.4
		L116.6,117.4z M134.4,143.6c-0.1,0.1-0.1,0.2-0.1,0.3c-0.2,6.5-1.9,12.9-3.6,19.2c-1.8,6.2-3.7,12.5-6.7,18.2
		c-0.5,0.9-1,1.8-1.6,2.8l5.8-49l6.3,8v0c0,0,0,0,0,0C134.4,143.3,134.4,143.4,134.4,143.6z M103.4,110.1c2.9-1.7,5.9-3.2,9.1-4.1
		l-9.5,80.5c-1.8-2.3-3-5.2-3.9-8c-1.2-3.6-2-7.4-2.4-11.2L103.4,110.1z M96.3,164.4c-0.2-2.5-0.3-5-0.4-7.5c-0.2-7-0.2-14,0.1-21
		c0.3-7.3,0.4-14.9,2-22c1.5-1.1,3.1-2.2,4.7-3.3L96.3,164.4z M113.1,105.8c0.5-0.1,0.9-0.2,1.4-0.4c0,0,0,0,0.1,0
		c0.2,0.2,0.3,0.3,0.5,0.5c-0.1,0.1-0.2,0.3-0.2,0.5l-0.3,11.1c0,0.2,0,0.4,0.1,0.5c0,0.1,0.1,0.1,0.1,0.2c0,0.1,0.1,0.1,0.1,0.2
		c0,0.1,0.1,0.1,0.1,0.2l4.4,5.6l-7.9,67.1c-0.9,0-1.8-0.2-2.8-0.5c-2.2-0.7-3.9-2-5.3-3.6L113.1,105.8z M120.1,124.9l7.5,9.5
		l-6,50.8c-2.4,3.2-5.5,5.8-9.3,6.1L120.1,124.9z M171,175.3l-53.2-67.4l8.4,1.8c0,0,0,0.1,0.1,0.1l49,62L171,175.3z M133.5,110.1
		c2.1,2.8,4.5,5.2,6.7,7.8c2,2.4,4.3,4.6,5.2,7.7c0.5,1.8,0.4,3.7,0.2,5.5l-1.4-1.8c0-0.3,0-0.6,0.1-0.9c0-0.6,0-1.3-0.2-1.9
		c-0.7-3.2-3.4-6.2-5.4-8.8c-2.7-3.5-5.6-6.9-8.3-10.4c-3.4-4.5-7.1-8.5-11.3-12.1h0.1c0,0,0.1,0,0.2,0c0,0,0,0,0,0c0,0,0,0,0,0
		c0,0,0,0,0.1,0c0.2,0.2,0.4,0.4,0.7,0.6C125.5,99.9,129.5,104.9,133.5,110.1z M122.7,95.3c0.5-1.1,1-2.1,1.6-3.1c0,0,0-0.1,0-0.1
		c0.2,0,0.3,0,0.5,0c-0.5,1.3-1,2.6-1.5,3.9C123.2,95.8,122.9,95.5,122.7,95.3z M152.3,130.4c0-1.9-0.1-3.8-0.1-5.7
		c0-1-0.1-2.1-0.5-3c-0.7-1.5-2-2.3-2.7-0.5c-0.6,1.6-0.5,4.1-0.5,5.8c-0.1,2.9,0.2,5.9,0.7,8.8l-1.9-2.4c0.1-1.6,0.2-3.2,0.3-4.8
		c0-0.6,0-1.3-0.2-1.9c-0.7-3.2-3.4-6.2-5.4-8.8c-0.9-1.2-1.8-2.3-2.8-3.5c5.6,1.9,11.7,3,18,3.1v28.4c-0.1,0-0.1,0-0.2-0.1
		l-4.9-6.2c0.2-0.4,0.2-1,0.2-1.4C152.4,135.5,152.3,132.9,152.3,130.4z M158.3,147.1c7.7-2.2,15.8-5.7,22.5-10.4c0,0,0,0.1,0,0.1
		c0.6-0.4,1.2-0.6,1.9-0.8c-6.2,6.9-14.7,11.3-24.1,11.5L158.3,147.1z M191.4,92.1c0,0,0,0.1,0,0.1c2.6,4.3,3.9,8.8,4,13.8
		c0,0-0.1,0-0.1,0.1c-0.3,0.2-0.6,0.3-0.9,0.5c-0.3-5.1-1.5-10-3.4-14.4C191.1,92.1,191.3,92.1,191.4,92.1z M192.3,104.3
		c-9.4,7.4-21.3,11.9-34.4,11.9c-7.1,0-13.9-1.3-20.2-3.8c-1.3-1.7-2.7-3.3-4-5c-2-2.7-4.2-5.3-6.6-7.7c-0.7-0.8-1.5-1.5-2.3-2.2
		c0.6-2,1.3-4,2.2-5.8c2.3-1.2,4.7-2.3,7.2-3.5c7.1-3.2,14.9-6.5,23.6-8.5c8.7,2,16.4,5.2,23.6,8.5c2.5,1.1,4.9,2.3,7.2,3.4
		C190.5,95.5,191.8,99.8,192.3,104.3z M187.7,89.8c-1.5-0.8-3.1-1.5-4.7-2.2c-7.5-3.4-15.6-6.9-24.7-8.9c0,0-0.1,0-0.1,0l-0.1,0
		c-0.2,0-0.4,0-0.6,0l-0.1,0c0,0,0,0-0.1,0c-9.1,2.1-17.2,5.5-24.7,8.9c-1.6,0.7-3.2,1.5-4.7,2.2c6.1-11.2,17.2-18.7,29.8-18.7
		C170.6,71.1,181.7,78.6,187.7,89.8z M154.6,69.3v-0.5c0-1.8,1.5-3.3,3.3-3.3c1.8,0,3.3,1.5,3.3,3.3v0.5c-1.1-0.1-2.2-0.2-3.3-0.2
		C156.8,69.2,155.7,69.2,154.6,69.3z M117,92.6c10.5-13.6,10.7-38.8,30.7-43.2c5.9-1.3,12.9,1,15.8,6.5c2.2,4.2,2.1,9.3,1.6,13.9
		c0,0,0,0.1,0,0.1c-0.7-0.1-1.3-0.3-2-0.4v-0.7c0-2.9-2.4-5.2-5.2-5.2c-2.9,0-5.2,2.4-5.2,5.2v0.7c-11.9,1.9-21.9,10-27.2,21.3
		c-1.1,0-1.7-0.2-2.5,1c-0.5,0.8-0.9,1.6-1.3,2.5c-0.3-0.2-0.6-0.5-0.9-0.6c0,0-0.1,0-0.1,0c-0.3,0-0.5,0-0.8-0.1c-1,0-2,0-2.9-0.1
		c-0.3,0.2-0.7,0.3-1,0.5C116.3,93.6,116.7,93.1,117,92.6z M77.9,110.6c4,0.9,8.1,0.5,12.1-0.5c-0.4,2.2-0.7,4.5-0.9,6.6
		C84.8,115.7,80.8,113.8,77.9,110.6z M109.3,198.3c-5.7-1.1-10.8-5-13.5-10.2c-2.7-5.3-3.6-11.7-4.6-17.5c-3.2-19.5-2-39.5,0.6-59
		c0.1-1.1,0.3-2.1,0.6-3.1c4-2.7,8.3-5.1,12.6-7.4c3.8-2,7.9-3.4,11.7-5.3c5.3,4,9.4,9,13.4,14.3c3.2,4.3,6.7,8.3,10.1,12.5
		c0.9,1.1,1.8,2.3,2.2,3.7c0.1,0.3,0.1,0.6,0.1,0.9c0,0-14.7-18.6-14.7-18.6c0,0-0.1-0.1-0.1-0.1c-0.1-0.1-0.2-0.2-0.2-0.3
		c0,0-0.1-0.1-0.1-0.1c-0.1-0.1-0.3-0.2-0.4-0.2l-10-2.1c0-0.1-0.1-0.2-0.2-0.3c-1.1-1-1.6-1.5-3.1-1.1c-2,0.5-4,1.2-6,2.1
		c-3.8,1.7-7.3,4-10.6,6.5c-0.2,0.1-0.3,0.2-0.3,0.4c-1.7,7.5-1.8,15.5-2.1,23.2c-0.3,8.3-0.4,16.8,0.1,25.1
		c0.4,7.3,1.1,15.1,4.4,21.7c1.6,3.1,3.9,5.9,7,7.6c6.4,3.5,13.6-0.3,16.9-6.1c5.1-9.1,8.6-19.7,10.9-29.8c0.4-1.7,0.7-3.4,1-5.2
		c0.1-0.9,1-4.5,0.5-5.2l4.4,5.5c-0.8,5.2-1.8,10.5-3.3,15.6c-2.7,9.3-5.7,19.4-12.3,26.7C120.4,196.7,115.3,199.5,109.3,198.3z
		 M127.7,192.3c-1.5,1.6-3.1,3-4.8,4.1c7.3-5.9,11-15.7,13.8-24.3c2.1-6.5,3.9-13.1,5-19.9l1.1,1.4c-0.7,4.1-1.6,8.1-2.7,12
		C137.3,174.9,134.3,185,127.7,192.3z M127.3,201c1.7-3.8,3.6-7.8,6.7-10.5c0.9,0.9,1.9,1.6,3,2.4c1.3,0.9,2.7,1.6,4.2,2.3
		c-1.4,1.5-3.5,2.3-5.3,3.2C133.2,199.9,130.5,200.8,127.3,201z M138.1,229.6c-3,2.3-7.7,2.7-11.6,2.6c1.7-1.8,3.8-3.2,5.2-5.3
		c1.4-2.2,1.8-4.8,1.9-7.3c0.9,0.6,2,1.1,3.1,1.3c1.7,0.3,3.6,0.1,5.3-0.4C140.9,223.6,140.8,227.5,138.1,229.6z M137.5,219
		c-6.3-0.8-8-8.2-6.7-13.4c0.3-1.1,0.6-2.3,1-3.4c1.8-0.5,3.5-1.2,5.2-2.1c2.1-1.1,4.6-2.2,6.2-4.1c3,1.2,6.3,1.9,9.4,2
		C152.7,206.5,148.2,220.4,137.5,219z M155.5,196.1c-5.4,0.1-10.2-1-15.1-3.5c-1.8-0.9-3.4-2-4.8-3.4c-0.5-0.5-1.4-1.1-1.9-1.8
		c0.5-0.9,1-1.9,1.5-2.8c0.8-0.5,1.3-1.4,1.9-2c0.6-0.6,1.2-1.1,1.4-1.9c0.1-0.4,0.2-0.7,0.2-1.1c0-0.3,0-0.7,0-1.1
		c-0.1-1.2-0.2-1.7,0.2-2.8c0.4-1.2,0.8-2.3,1.2-3.5c1.8-5.4,3.3-10.9,4.4-16.4l7.7,9.8c0,0,0,0,0,0c0.4,0.4,0.8,0.9,1.1,1.4
		c0.7,0.8,1.4,1.6,2,2.5l0.9,1.2v0v16c0,0.8,1.3,0.8,1.3,0v-3c0.1-0.1,0.1-0.2,0.1-0.3v-11l1.2,1.5c0,0,0,0,0,0
		c0,0.1,0.1,0.1,0.1,0.1c0.3,0.4,0.7,0.8,1,1.3c0,0,0,0,0,0l1.6,2c0.4,0.5,0.8,1.1,1.2,1.6c0.2,0.2,0.4,0.4,0.5,0.6c0,0,0,0,0,0.1
		l0.9,1.2l-4.2,3.4c-1.1,0.8-1.2,2.4-0.4,3.5c0.8,1.1,2.4,1.2,3.5,0.4l2.4-1.9c0.4-0.4,0.9-0.8,1.3-1.1c0.2-0.2,0.4-0.3,0.6-0.5
		c0,0,0.1,0,0.1-0.1c0,0,0,0,0.1,0c0.1-0.1,0.1-0.1,0.2-0.2c0,0,0,0,0,0l1.9-1.6l0.9,1.2c-3.8,0.6-3.1,7-0.1,9.2
		C165.9,195.1,160.7,196,155.5,196.1z M180.5,226.9c1.4,2.1,3.5,3.5,5.2,5.3c-4,0.1-8.6-0.3-11.6-2.6c-2.7-2.1-2.8-6-3.9-9.1
		c1.8,0.6,3.6,0.7,5.3,0.4c1.1-0.2,2.2-0.7,3.1-1.3C178.6,222.1,179.1,224.7,180.5,226.9z M174.7,219c-10.8,1.4-15.2-12.8-15-21.2
		c3.5-0.4,6.9-1.1,10.1-2.4c0.1,0.1,0.1,0.3,0.3,0.4c2.9,2.4,6.4,4.6,10.1,5.5c0.5,1.4,0.9,2.9,1.3,4.3
		C182.7,210.8,181,218.2,174.7,219z M171.6,194.6c0.7-0.3,1.4-0.7,2.1-1.1c0.1,0,0.2-0.1,0.3-0.1c1.4,1.7,3.6,2.3,5.8,2.2l3.3,4.2
		C179.1,199.7,174.8,197.2,171.6,194.6z M186.4,191.8l4.1,5.2c-0.1,0.3-0.2,0.6-0.4,0.9c-0.5,0.8-1.2,1.5-2.2,1.8
		c-0.4,0.1-0.9,0.2-1.3,0.3l-3.9-5c0.3-0.1,0.5-0.2,0.8-0.3C184.9,194.1,185.8,193.1,186.4,191.8z M188.3,176
		c-0.9,2.4-1.8,4.7-3.4,6.6c-1.1-2.2-2.7-4.2-4.7-4.5c-0.5-0.1-0.9,0-1.3,0.1l-1.5-1.8l7-5.6c1.1-0.8,1.2-2.4,0.4-3.5
		c-0.4-0.4-0.8-0.7-1.3-0.8c-0.7-0.2-1.5,0-2.1,0.5l-3.4,2.7c0.4-0.6,0.8-1.2,1.3-1.8c0,0,0.1-0.1,0.1-0.1c0.2-0.1,0.4-0.4,0.4-0.8
		c2.8-3,7.3-4.2,9.9,0.3C191.4,170.2,189.4,173.2,188.3,176z M190.7,165.3c-0.2-0.2-0.4-0.5-0.6-0.7c-3.2-3.3-7.3-2.7-10.4-0.3
		c-0.1-3.4-0.5-6.8-0.8-10.3c0-0.2-0.1-0.4-0.2-0.6c-0.5-0.6-1.8-0.4-1.7,0.6c0.4,4,0.8,8.1,0.8,12.1c-0.5,0.7-1,1.4-1.4,2.2
		c0,0.1-0.1,0.1-0.1,0.2c-0.2,0.3-0.4,0.6-0.6,0.9l-2.9-3.7c-0.6-0.7-1.2-1.4-1.7-2.2l-0.2-0.2c0,0,0,0,0,0c0,0,0,0,0,0
		c-0.1-0.1-0.2-0.3-0.3-0.4c-0.3-0.4-0.7-0.8-1-1.2c0,0,0,0,0,0c0,0-0.1-0.1-0.1-0.1c0,0,0,0,0-0.1l-2.4-3.1
		c-0.3-0.3-0.5-0.6-0.8-0.9c-0.3-0.4-0.6-0.8-0.9-1.2c0,0,0,0,0,0l-5.5-7c2.1-0.1,4.1-0.4,6.1-0.9c2.7-0.7,5.3-1.7,7.7-3
		c0.1,0.4,0.2,0.8,0.3,1.2c0.6,1.2,1.3,2.4,2,3.5c0.8,1.1,1.7,2.1,2.6,3.1c2.6,2.5,5.7,4.5,9,5.8c1,0.4,2.2,0.8,3.5,1.2
		C191.4,162,191.1,163.7,190.7,165.3z M196.6,159.3c-1.6-0.1-3.2-0.4-4.8-0.8c-1.6-0.4-3.2-1-4.7-1.7c-1.6-0.7-3-1.6-4.4-2.6
		c-1.3-1-2.6-2.1-3.7-3.3c-1.1-1.2-1.7-2.8-2.7-4c2.4,2.8,5.7,4.6,9.1,5.8c3.8,1.3,7.8,2.2,11.8,2.4c0.8,0,1.6,0,2.4-0.1
		c0.4,1.2,0.8,2.4,1.2,3.5C201,159,197,159.3,196.6,159.3z M198.1,153.2c-2.8,0.1-5.6-0.6-8.3-1.2c-5.2-1.1-10.5-3.3-13.3-8
		c0.1,0,0.1-0.1,0.2-0.1c3.4-2,6.3-4.9,8.7-8c3.2,0,6.6,1.2,9,2.1c5.9,2.3,10.3,6.5,11.8,12.7C203.7,151.8,201.1,153.1,198.1,153.2z
		"/>
</g>
</svg>
