<?xml version="1.0" encoding="utf-8"?>
<!-- Generator: Adobe Illustrator 23.1.1, SVG Export Plug-In . SVG Version: 6.00 Build 0)  -->
<svg version="1.1" id="Layer_1" xmlns="http://www.w3.org/2000/svg" xmlns:xlink="http://www.w3.org/1999/xlink" x="0px" y="0px"
	 viewBox="0 0 288 288" style="enable-background:new 0 0 288 288;" xml:space="preserve">
<style type="text/css">
	.st0{fill:#414042;}
	.st1{fill:#47260B;}
	.st2{fill:#BCBEC0;}
	.st3{fill:#939598;}
	.st4{fill:#3A1E08;}
	.st5{fill:#58595B;}
	.st6{fill:#808285;}
	.st7{fill:#231F20;}
	.st8{fill:#0C0A0B;}
	.st9{fill:#A7A9AC;}
	.st10{fill:#6D6E71;}
	.st11{fill:#D1D3D4;}
	.st12{fill:#FFFFFF;}
	.st13{fill:#603913;}
	.st14{fill:#FFF200;}
	.st15{fill:#0071BC;}
	.st16{fill:#005791;}
	.st17{fill:#110E0F;}
</style>
<g>
	<ellipse class="st0" cx="143" cy="227.9" rx="57.6" ry="9.9"/>
	<path class="st1" d="M157,164.6c-0.1,0.1-0.1,0.1-0.2,0.2c0,0,0,0.1-0.1,0.1c-0.2,0.3-0.4,0.5-0.7,0.8c-0.7,0.9-1.1,2-1.1,3.1
		c-0.4-0.2-0.8-0.4-1.1-0.6l3-3.9c0,0.1,0.1,0.1,0.1,0.2S156.9,164.6,157,164.6z"/>
	<path class="st1" d="M151.8,179.5C151.7,179.5,151.7,179.5,151.8,179.5c-0.1,0.2-0.1,0.3-0.2,0.4c-0.8,0.9-1.7,1.8-2.6,2
		c-0.9,0.2-2.5-0.8-2.9-1.6c-0.4-0.9,0-1.8,0.4-2.5c0-0.1,0.1-0.1,0.1-0.2c0.1-0.1,0.2-0.2,0.3-0.4c0,0,0,0,0.1-0.1
		C148.2,178.4,149.9,179.3,151.8,179.5z"/>
	<path class="st2" d="M128.4,161.9c0,0.1,0.1,0.1,0.1,0.1c-0.8,0.4-1.5,0.8-2.2,1.3c-1.3,1-2.4,2.1-3.6,3.3
		c-0.3,0.3-0.6,0.6-0.8,0.9c-0.9-1-1.8-2-2.5-3.1c0.4-0.4,0.9-0.8,1.2-1.1c1.9-1.9,3.6-4,4.9-6.3c-0.2,0.4,0.9,2.1,1.1,2.4
		C127.1,160.3,127.7,161.1,128.4,161.9z"/>
	<path class="st3" d="M123.7,162.4c1-1.2,1.7-2.4,2.4-3.7c-0.4-0.6-0.8-1.5-0.7-1.7c-1.3,2.3-3,4.4-4.9,6.3
		c-0.4,0.4-0.8,0.7-1.2,1.1c0.3,0.4,0.5,0.7,0.8,1.1C121.5,164.6,122.7,163.7,123.7,162.4z"/>
	<path class="st4" d="M164.4,146.2l-0.4,0.5c-0.2-0.7-0.5-1.4-0.6-2.1c0-0.2-0.1-0.3-0.2-0.4c0.1-0.1,0.2-0.1,0.3-0.2
		C163.7,144.7,164,145.5,164.4,146.2z"/>
	<path class="st5" d="M167.7,167.1C167.7,167.1,167.6,167.1,167.7,167.1c-1,1.9-3.8,3.9-6.2,4.1c1.1-0.7,2-1.7,2.7-2.8
		c0.5-0.9,0.7-1.8,0.6-2.7l0.5-0.6L167.7,167.1z"/>
	<path class="st6" d="M159.5,162c0,0.1,0,0.2-0.1,0.3c0,0.1,0,0.1,0,0.2c0,0.2-0.1,0.3-0.3,0.4c-0.3,0.2-0.6,0.3-1,0.3
		c-0.5,0-0.9-0.3-1.1-0.8c-0.2-0.2-0.2-0.5-0.1-0.7c0-0.1,0.1-0.1,0.1-0.2l0,0l0.1-0.1l0,0c0.1-0.1,0.1-0.1,0.2-0.2
		c0.5-0.4,1.2-0.4,1.6,0.1C159.2,161.4,159.5,161.7,159.5,162z"/>
	<path class="st5" d="M158.9,161.2c-0.4-0.5-1.1-0.5-1.6-0.1c-0.1,0-0.1,0.1-0.2,0.1l0,0c0.5,0.6,1,1.2,1.4,1.8
		c0.2-0.1,0.4-0.1,0.5-0.3c0.2-0.1,0.3-0.3,0.3-0.4c0-0.1,0-0.1,0-0.2c0-0.1,0.1-0.2,0.1-0.3C159.5,161.7,159.2,161.4,158.9,161.2z"
		/>
	<path class="st6" d="M163.1,166.1c0,0.4-0.1,0.8-0.2,1.1c-0.1,0.3-0.3,0.6-0.5,0.9c-0.8,1-2,1.8-3.2,2c-0.3,0-0.5,0-0.8,0
		c-0.5,0-0.9-0.1-1.2-0.4c-0.5-0.3-0.7-0.8-0.6-1.5c0.1-0.9,0.7-1.6,1.3-2.2c0.4-0.4,1.2-1.4,1.7-1.6c0.3-0.1,0.7-0.1,1-0.1h0.1
		c0.4,0,0.8,0,1.2,0.1C162.6,164.6,163,165.3,163.1,166.1z"/>
	<path class="st5" d="M163.1,166.1c0-0.7-0.5-1.5-1.2-1.7c-0.4-0.1-0.8-0.1-1.2-0.1h-0.1c-0.3,0-0.6,0-0.9,0.1
		c0.9,0.5,1.6,1.6,1.8,2.5c0.1,0.6,0.1,1.5-0.1,2.2c0.4-0.3,0.7-0.6,0.9-0.9c0.2-0.3,0.4-0.6,0.5-0.9
		C163,166.9,163.1,166.5,163.1,166.1z"/>
	<path class="st6" d="M152.7,170c1.8,1,4.1,1.6,3.9,4.1c-0.1,1.6-1.3,2.9-2.9,3.3c-1.9,0.5-3.3-0.4-4.8-1.6c-0.6-0.4-1.1-1-1.8-1
		c-0.9-0.1-2.3,0.4-3.3,0.6c-4.3,0.6-8.7,0.9-13,0.3c-3.4-0.5-7.3-1.1-10-3.4c0.7-1.8,2.3-3.3,3.6-4.7c0.8-0.9,1.7-1.7,2.6-2.4
		s1.9-1.2,2.9-1.7c4.7,4.5,10.9,6.7,17.5,6.6c0.2,0,0.3,0,0.5-0.1c0.2-0.4,0.6-0.7,0.8-1.1c0.1-0.1,0.1-0.2,0.2-0.3l0.1-0.1
		c0.2-0.3,0.6-0.7,1.1-1.1c0.4-0.3,0.9-0.6,1.4-0.8l0,0c0.2,0,0.4,0.1,0.5,0.3c0.1,0.1,0.1,0.3,0.1,0.4l0,0v0.1c0,0.1,0,0.3-0.1,0.4
		c0,0.1-0.6,1.1-0.5,1.2v0.1C151.9,169.5,152.2,169.8,152.7,170z"/>
	<path class="st5" d="M152.7,170c-0.4-0.2-0.8-0.6-1.1-0.9V169c-0.1-0.1,0.4-1.1,0.5-1.2c0-0.1,0.1-0.3,0.1-0.4v-0.1l0,0
		c0-0.2-0.1-0.3-0.1-0.4c-0.1-0.2-0.3-0.3-0.5-0.3l0,0c-0.5,0.1-1,0.4-1.4,0.8c-0.1,0.1-0.1,0.1-0.2,0.2l0,0
		c-0.4,0.3-0.7,0.7-0.9,0.9l-0.1,0.1c-0.1,0.1-0.1,0.2-0.2,0.3c-0.3,0.3-0.6,0.7-0.8,1.1c-0.1,0.1-0.3,0.1-0.5,0.1
		c-6.5,0.1-12.8-2.1-17.5-6.6c-0.8,0.4-1.6,0.8-2.4,1.4c3,2.9,7.2,4.7,11.2,5.6c2.7,0.6,5.6,1.1,8.3,0.5c1.3-0.3,2.4-0.9,3.3-1.7
		c0.5,1.2,1.3,2.2,2.5,3.1c1.2,0.9,2.3,1.2,3.6,1.5C156.5,171.5,154.4,170.9,152.7,170z"/>
	<path class="st2" d="M168.5,141l-2.8,3.5c-0.3-0.6-0.5-1.2-0.7-1.8c0.7-0.6,1.4-1.1,2.1-1.8C167.6,140.9,168,140.9,168.5,141z"/>
	<path class="st7" d="M173.1,227.9c-4,0.1-8.6-0.3-11.6-2.6c-2.7-2.1-2.8-6-3.9-9.1c1.8,0.6,3.6,0.7,5.3,0.4
		c1.1-0.2,2.2-0.7,3.1-1.3c0.1,2.6,0.5,5.1,1.9,7.3C169.3,224.7,171.4,226.1,173.1,227.9z"/>
	<path class="st8" d="M161.7,223.9c-0.7-1-3.5-5.3-1.8-6.2c1-0.5,2.6-0.2,3.7-0.4c0.9-0.2,1.7-0.6,2.5-0.9c0-0.3,0-0.6,0-1
		c-0.9,0.6-2,1.1-3.1,1.3c-1.7,0.3-3.6,0.1-5.3-0.4c1.1,3.1,1.2,7.1,3.9,9.1c0.8,0.6,1.6,1.1,2.6,1.4
		C163.2,225.8,162.3,224.8,161.7,223.9z"/>
	<path class="st7" d="M129.5,216.2c-1.1,3.1-1.2,7.1-3.9,9.1c-3,2.3-7.7,2.7-11.6,2.6c1.7-1.8,3.8-3.2,5.2-5.3
		c1.4-2.2,1.8-4.8,1.9-7.3c0.9,0.6,2,1.1,3.1,1.3C125.9,216.9,127.7,216.7,129.5,216.2z"/>
	<path class="st8" d="M124.2,216.6c-1.1-0.2-2.2-0.7-3.1-1.3c0,0.2,0,0.4,0,0.7c1.8,1.3,3.7,1.2,5.8,1.6c0.1,0,0.2,0.2,0.2,0.3
		c-0.5,3.3-1.6,5.6-4.2,7.6c-0.9,0.7-1.9,1.4-2.9,2c2.1-0.4,4.2-1.1,5.7-2.3c2.7-2.1,2.8-6,3.9-9.1
		C127.7,216.7,125.9,216.9,124.2,216.6z"/>
	<path class="st9" d="M168.8,201.3c1.3,5.2-0.4,12.6-6.7,13.4c-10.6,1.4-15.1-12.5-15-21c3.1-0.1,6.4-0.8,9.4-2
		c1.5,1.9,4,2.9,6.2,4.1c1.7,0.9,3.4,1.6,5.2,2.1C168.2,199.1,168.5,200.2,168.8,201.3z"/>
	<path class="st10" d="M155.8,192.8c3.4,3.3,7.6,5.2,12.2,5.8c-0.1-0.2-0.1-0.4-0.2-0.6c-1.8-0.5-3.5-1.2-5.2-2.1
		c-2.1-1.1-4.6-2.2-6.2-4.1c-0.4,0.2-0.8,0.3-1.3,0.5c-2.7,0.9-5.4,1.4-8.1,1.5c-0.1,5.4,1.7,12.9,5.8,17.4c-0.6-0.9-1-1.9-1.5-2.8
		c-1.2-2.4-2.4-4.8-2.7-7.5c-0.3-2.3,0.1-4.8,2.1-6.2c1.5-1,3.5-1.5,5.2-2.1C156,192.7,155.9,192.8,155.8,192.8z"/>
	<path class="st9" d="M140,193.5c0.2,8.5-4.3,22.6-15,21.2c-6.3-0.8-8-8.2-6.7-13.4c0.4-1.4,0.8-2.9,1.3-4.3
		c3.7-0.9,7.2-3.1,10.1-5.5c0.1-0.1,0.2-0.3,0.3-0.4C133.1,192.4,136.5,193.1,140,193.5z"/>
	<path class="st10" d="M134.5,210.6c-0.1,0.2-0.2,0.5-0.4,0.7c4.2-4.5,6-12.3,5.9-17.8c-3.5-0.4-6.9-1.1-10.1-2.4
		c-0.1,0.1-0.1,0.3-0.3,0.4c-2.9,2.4-6.4,4.6-10.1,5.5c-0.1,0.2-0.1,0.4-0.2,0.6c2.1-0.5,4.1-1.1,6-2.1c1.7-0.9,3.2-2,4.6-3.2
		c2.4,0.9,5.5,0.8,7.2,2.9c1.7,2,0.9,5.1,0.2,7.4C136.6,205.3,135.8,208.1,134.5,210.6z"/>
	<path class="st2" d="M218.6,91.6l0.2,8.6l0,0l0,0l-49,62.1l-4.3-3.4L218.6,91.6z"/>
	<path class="st2" d="M218.6,91.6l0.2,8.6l0,0l0,0l-49,62.1l-4.3-3.4L218.6,91.6z"/>
	<path class="st11" d="M217.6,90.8l-53.2,67.3l-4.3-3.4l49-62l0.1-0.1L217.6,90.8z"/>
	<path class="st2" d="M181.8,150.2c0.7,2.2,0.9,4.5,0.6,7c0,0.1,0,0.2,0,0.3c-0.1,0.1-0.2,0.3-0.2,0.4c-1.8,0.6-3.7-0.1-5.5-1.2
		L181.8,150.2z"/>
	<path class="st3" d="M181.2,106.8L181.2,106.8c-0.4,0.2-0.7,0.4-1,0.5c-0.3-5.1-1.5-10-3.4-14.4c0.1,0,0.3,0,0.4,0V93
		C179.9,97.3,181.1,101.8,181.2,106.8z"/>
	<path class="st9" d="M178.2,106.6c0.1,1.2,0.2,2.3,0.2,3.5c0,7.2-1.8,13.9-4.9,19.6c-1.8,1.8-3.6,3.6-5.6,5.2
		c-6.7,5.3-15.3,9.2-23.5,11.6v-28.3C157.1,118.1,168.9,113.7,178.2,106.6z"/>
	<path class="st3" d="M178.2,106.6c-1.3,1-2.7,2-4.2,2.9c0.2,4.2-0.1,8.6-0.6,12.7c-0.5,3.8-1.4,8.1-3.8,11.2
		c1.3-1.2,2.6-2.4,3.8-3.7c3.1-5.7,4.9-12.5,4.9-19.6C178.4,108.9,178.3,107.8,178.2,106.6z"/>
	<path class="st11" d="M174.4,92.4c1.8,3.9,3.1,8.1,3.6,12.7c-9.4,7.4-21.3,11.9-34.4,11.9c-13,0-25-4.5-34.4-11.9
		c0.5-4.5,1.8-8.8,3.6-12.6c2.3-1.2,4.7-2.3,7.2-3.5c7.1-3.2,14.9-6.5,23.6-8.5c8.7,2,16.4,5.2,23.6,8.5
		C169.7,90.1,172.1,91.2,174.4,92.4z"/>
	<path class="st9" d="M143.6,82.7c0,1.8,0,3.7,0,5.5c0,3.5,0,7.1,0,10.6c0,3.7,0,7.3,0,11c0,2.3,0.2,4.8,0.1,7.1
		c13,0,24.9-4.5,34.2-11.8c-0.5-4.5-1.8-8.8-3.6-12.7c-2.3-1.2-4.7-2.3-7.2-3.4c-7.1-3.2-14.9-6.5-23.6-8.5l0,0
		C143.6,81.3,143.6,82,143.6,82.7z"/>
	<path class="st12" d="M124.1,87.2c-1.4,0.6-2.7,1.2-4,1.8c-2.5,1.1-4.9,2.3-7.2,3.5c-1.8,3.9-3.1,8.1-3.6,12.6
		c2.1,1.7,4.4,3.2,6.8,4.6C117,101.6,120.1,94.1,124.1,87.2z"/>
	<path class="st13" d="M177.3,159.1c-0.1,1.3-0.5,2.6-1.2,3.7c-0.9-0.7-1.8-1.3-2.6-2l2.1-2.7C176.1,158.5,176.7,158.8,177.3,159.1z
		"/>
	<path class="st4" d="M176.2,160.6c0.2,0.2,0.4,0.4,0.6,0.6c0.2-0.7,0.4-1.4,0.4-2.1c-0.6-0.3-1.1-0.6-1.7-1l-0.6,0.7
		C175.4,159.5,175.8,160.1,176.2,160.6z"/>
	<path class="st14" d="M174.2,168.5c0.2,0.2,0.3,0.5,0.1,0.7s-0.5,0.3-0.7,0.1l-21.4-17.2c-0.2-0.2-0.3-0.5-0.1-0.7s0.5-0.3,0.7-0.1
		L174.2,168.5z"/>
	<path class="st11" d="M173.5,90.6c-1.5-0.8-3.1-1.5-4.7-2.2c-7.5-3.4-15.6-6.9-24.7-8.9H144h-0.1c-0.2,0-0.4,0-0.6,0h-0.1
		c0,0,0,0-0.1,0c-9.1,2.1-17.2,5.5-24.7,8.9c-1.6,0.7-3.2,1.5-4.7,2.2c6.1-11.2,17.2-18.7,29.8-18.7
		C156.3,71.9,167.4,79.4,173.5,90.6z"/>
	<path class="st3" d="M162.9,81c1.8,2,3.7,4.4,5,6.9c0.3,0.1,0.7,0.3,1,0.4c1.6,0.7,3.2,1.5,4.7,2.2c-3.9-7.2-9.9-12.9-17.1-16.1
		C158.7,76.5,160.9,78.8,162.9,81z"/>
	<path class="st12" d="M131.7,76.6c1.7-1.5,3.6-2.9,5.7-4.1c-10,2-18.4,8.8-23.5,18c1.5-0.7,3.1-1.5,4.7-2.2
		c1.9-0.9,3.9-1.7,5.8-2.6C126.1,82.3,128.7,79.2,131.7,76.6z"/>
	<path class="st15" d="M165.6,186.3c3.1,2.7,5,6.7,6.7,10.5c-3.2-0.2-5.9-1-8.7-2.6c-1.7-0.9-3.9-1.7-5.3-3.2
		c1.5-0.7,2.9-1.4,4.2-2.3C163.6,187.9,164.7,187.1,165.6,186.3z"/>
	<path class="st16" d="M163,189.3c1.3-0.6,2.3-1.4,3.3-2.3c-0.3-0.3-0.5-0.5-0.8-0.8c-0.9,0.9-1.9,1.6-3,2.4
		c-1.3,0.9-2.7,1.6-4.2,2.3c0.2,0.2,0.3,0.3,0.5,0.5C160.2,190.5,161.6,190,163,189.3z"/>
	<path class="st2" d="M162.5,178.1c0.8,0.8,3.9,2.8,3.9,3.9c-0.1,1.2-1.6,2.1-2.4,2.9c-1.4,1.4-3,2.5-4.8,3.4
		c-4.8,2.5-9.7,3.6-15.1,3.5c-9-0.1-18.1-2.8-24.2-9.8c1.8-1.7,3.4-3.5,5.1-5.4c1.7,0.4,3.3,0.7,4.8,0.9c2.2,0.3,4.4,0.5,6.6,0.5
		c1.1,0,2.2-0.1,3.3-0.2c0.8-0.1,1.6-0.2,2.5-0.3c0,0,0.1,0,0.2,0c0.2,0,0.5-0.1,0.7-0.1c0.4-0.1,0.9-0.2,1.3-0.3
		c-0.2,0.5-0.4,1-0.5,1.6l0,0c-0.1,0.6,0,1.2,0.3,1.6l0,0c0.4,1.2,1.5,2.3,2.9,3c3,1.3,5.5-1.8,7.1-4.1c1.9-0.5,3.5-2.3,4-4.1
		c0.2-0.6,0.2-1.1,0.2-1.7l0.7-0.9c0.3,0.1,0.7,0.2,1,0.2C160.3,175,161.2,176.7,162.5,178.1z"/>
	<path class="st12" d="M130.5,188.1c-3.3-1.9-6.7-4.6-8.6-8c-0.6,0.7-1.3,1.3-1.9,1.9c4.3,4.9,10.1,7.7,16.3,9
		C134.3,190.2,132.3,189.2,130.5,188.1z"/>
	<path class="st3" d="M136.8,179.9c1.1-0.1,2.2-0.2,3.3-0.5c0.7-0.1,1.3-0.3,2-0.1c1.2,0.5,1.6,1.8,1.9,2.9c0.9,3,3.5,3.6,5.9,1.8
		c1.4-1,2.5-2.4,4-3.4c2.5-1.6,5.3-2.4,7.3-4.3c-0.6-1-1-2.1-1.1-3.4c-0.3,0-0.7-0.1-1-0.2l-0.7,0.9c0,0.5-0.1,1.1-0.2,1.7
		c-0.5,1.8-2.1,3.6-4,4.1c-1.6,2.3-4.1,5.4-7.1,4.1c-1.5-0.6-2.5-1.7-2.9-3l0,0c-0.3-0.5-0.4-1.1-0.3-1.6l0,0c0-0.6,0.2-1.1,0.5-1.6
		c-0.4,0.1-0.8,0.2-1.3,0.3c-0.2,0-0.5,0.1-0.7,0.1h-0.2c-0.8,0-1.6,0.2-2.5,0.3c-1.1,0.1-2.2,0.2-3.3,0.2c-2.2,0-4.4-0.2-6.6-0.5
		c-1.5-0.2-3.2-0.5-4.8-0.9c-0.4,0.5-0.8,0.9-1.2,1.4C128,179.5,132.4,180.2,136.8,179.9z"/>
	<path class="st2" d="M151.9,149.3c0.7-0.2,1.5,0,2.1,0.5l4.6,3.7l3.9-5c-0.1-0.2-0.2-0.4-0.3-0.6c-0.1-0.9-0.6-1.8-0.8-2.7
		C158.5,147,155.3,148.4,151.9,149.3c-2.7,0.6-5.4,0.9-8.2,0.9c-5.4,0-10.5-1.3-15.1-3.6c-0.1,1.4-0.3,2.8-0.6,4.2
		c-0.3,1.3-1.5,3.1-1,4.4c0.8,2,1.6,3.8,3,5.4c1.3,1.5,2.9,2.7,4.5,3.9c3.6,2.6,8.1,3.5,12.5,3.5l0.1-0.1l0,0c0.2-0.4,0.6-0.8,1-1
		c1.5-1.2,3.4-2.2,5.4-1.8l1.8-2.4c0,0,0,0-0.1-0.1c0,0,0,0,0-0.1c0-0.5-0.2-1.1-0.1-1.7c0.1-1.1,0.5-1.4,1.6-1.6
		c0.4,0,0.8-0.1,1.3,0l0.1-0.1l-7.1-5.7c-1.1-0.8-1.2-2.4-0.4-3.5C150.9,149.7,151.4,149.5,151.9,149.3z"/>
	<path class="st3" d="M153.7,161.6c-0.6,0.8-1.4,1.3-2.4,1.7c-1.8,0.7-3.1,1.4-4.5,2.8c-0.8,0.8-1.6,1.5-2.6,1.9
		c1,0.1,1.9,0.1,2.9,0.1l0.1-0.1l0,0c0.2-0.4,0.6-0.8,1-1c1.5-1.2,3.4-2.2,5.4-1.8l1.8-2.4c0,0,0,0-0.1-0.1c0,0,0,0,0-0.1
		c0-0.5-0.2-1.1-0.1-1.7c0.1-1.1,0.5-1.4,1.6-1.6c0.4,0,0.8-0.1,1.3,0l0.1-0.1l-2.5-2C154.3,158.5,154.6,160.2,153.7,161.6z"/>
	<path class="st2" d="M162.2,147.4c-0.9,0.7-1.9,1.4-2.7,2.3c-0.8,0.8-1.5,1.8-2.2,2.7l1.3,1.1l3.9-5c-0.1-0.2-0.2-0.4-0.3-0.6
		C162.3,147.7,162.2,147.6,162.2,147.4z"/>
	<path class="st3" d="M136.2,151.2c3.1,0.7,6.2,0.9,9.4,0.7c1.5-0.1,3-0.3,4.5-0.6c0.1-0.4,0.2-0.8,0.5-1.1c0.4-0.4,0.8-0.7,1.3-0.8
		c0.7-0.2,1.5,0,2.1,0.5l0.5,0.4c0.1,0,0.3-0.1,0.4-0.1c2.4-0.7,5-1.7,7.1-3.2c-0.2-0.6-0.4-1.1-0.5-1.7c-3,1.8-6.2,3.2-9.6,4.1
		c-2.6,0.7-5.4,1-8.2,1c-5.4,0-10.5-1.3-15.1-3.6c0,0.4,0,0.7-0.1,1.1C130.9,149.2,133.4,150.5,136.2,151.2z"/>
	<path class="st3" d="M162.7,147.9c0-0.1,0-0.2,0-0.2c-0.4,0.3-0.8,0.5-1.1,0.7c-0.5,0.4-1.1,0.9-1.6,1.3c-0.6,0.5-1.1,1.1-1.7,1.6
		c-0.3,0.3-0.6,0.6-0.8,0.9l1.7,1.4l3.9-5C162.8,148.3,162.7,148.1,162.7,147.9z"/>
	<path class="st15" d="M149.3,56.8c2.2,4.2,2.1,9.3,1.6,13.9v0.1c-0.7-0.1-1.3-0.3-2-0.4v-0.7c0-2.9-2.4-5.2-5.2-5.2
		c-2.9,0-5.2,2.4-5.2,5.2v0.7c-11.9,1.9-21.9,10-27.2,21.3c-1.1,0-1.7-0.2-2.5,1c-0.9,1.4-1.6,3-2.2,4.5c-1.2,3.1-1.7,6.5-1.8,9.8
		l0,0c0,0.2,0.1,0.5,0.3,0.6c0.2,0.1,0.3,0.2,0.5,0.3c0.5,0.3,1,0.6,1.5,0.9c0,0.4,0,0.8,0,1.2c0,1.8,0.1,3.7,0.3,5.5
		c-3.4,5.2-8.2,6.7-13.7,7.6c2-1.3,3.8-3,4.6-5.2c0.2-0.7-0.5-1.4-1.2-1.2c-10.1,2.8-25.6,3.1-33.4-5.3c7.1,1.6,14.7-0.8,21-3.8
		c6.9-3.3,13.4-8.1,18.1-14.2c10.5-13.6,10.7-38.8,30.7-43.2C139.4,49,146.4,51.3,149.3,56.8z"/>
	<path class="st16" d="M149.3,56.8c-2.9-5.5-9.9-7.8-15.8-6.5c-1.7,0.4-3.2,0.9-4.6,1.5c3.2-0.9,6.7-1,9.9,0.1
		c3.3,1.1,6,3.5,7.5,6.7c1.2,2.3,2.4,5.9,1.9,8.9c0.3,0.7,0.5,1.5,0.5,2.3v0.7c0.7,0.1,1.3,0.2,2,0.4v-0.1
		C151.4,66.1,151.5,61,149.3,56.8z"/>
	<path class="st16" d="M107.1,108.9c-0.5-0.3-1-0.6-1.5-0.9h-0.1c-2.9,2.7-6.6,4.6-10.2,6c-3.7,1.5-7.6,2.4-11.6,2.8
		c-4.6,0.5-10,0.4-14.6-1.3c8.3,4.2,19.8,3.5,27.9,1.3c0.7-0.2,1.4,0.5,1.2,1.2c-0.7,2.2-2.5,3.8-4.6,5.2c5.5-0.8,10.3-2.3,13.7-7.6
		c-0.2-1.8-0.3-3.6-0.3-5.5C107,109.7,107.1,109.3,107.1,108.9z"/>
	<path class="st16" d="M134.5,71.2c1.3-0.4,2.5-0.6,3.9-0.9v-0.7c0-0.4,0.1-0.9,0.2-1.3C137,69.2,135.7,70.1,134.5,71.2z"/>
	<path class="st7" d="M147,69.7v0.4c-1.1-0.1-2.2-0.2-3.3-0.2s-2.3,0.1-3.4,0.2v-0.5c0-1.8,1.5-3.3,3.3-3.3
		C145.5,66.4,147,67.8,147,69.7z"/>
	<path class="st17" d="M145.2,66.8c0.2,1.1,0.2,2.2,0,3.2c0.6,0,1.2,0.1,1.7,0.1v-0.5C147,68.4,146.3,67.3,145.2,66.8z"/>
	<path class="st6" d="M168.6,136c-7,5.5-16.1,9.6-24.7,12c-0.1,0-0.1,0-0.2,0h-0.1c-0.1,0-0.2,0-0.3,0c-8.6-2.4-17.6-6.5-24.7-12
		c-0.5-0.4-1-0.8-1.5-1.2c6.4,8.3,15.9,13.6,26.5,13.6c0,0,0,0,0.1,0c10.7,0,20.3-5.4,26.7-13.9C169.8,135,169.2,135.5,168.6,136z"
		/>
	<path class="st2" d="M143,118.2v28.4c-8.2-2.4-16.9-6.3-23.6-11.6c-1.9-1.5-3.7-3.2-5.4-4.9c-3.2-5.8-5.1-12.6-5.1-19.9
		c0-1.2,0.1-2.4,0.2-3.5C118.5,113.8,130.2,118.1,143,118.2z"/>
	<path class="st12" d="M117.5,132.1c-0.9-2.8-1.5-5.7-1.8-8.6c-0.3-2.4-0.5-4.9-0.6-7.3c0-1.6-0.1-3.7,0.5-5.3
		c-2.3-1.3-4.4-2.7-6.5-4.3c-0.1,1.2-0.2,2.3-0.2,3.5c0,7.3,1.9,14.1,5.1,19.9c1.3,1.3,2.6,2.5,3.9,3.7
		C117.8,133.1,117.7,132.5,117.5,132.1z"/>
	<path class="st13" d="M126.5,147.8c-0.5,1.5-0.6,3.2-1.1,4.8c-0.6,1.6-1.3,3.1-2.2,4.5c-0.9,1.5-2,2.9-3.2,4.1
		c-1.2,1.2-2.5,2.4-3.8,3.4s-2.7,1.9-4.3,2.5c-0.3,0.1-4.3,1.4-4.3,0.8c-0.1-1.3-0.1-2.5-0.2-3.8c0.8-0.2,1.5-0.4,2.3-0.8
		c3.8-1.6,7.2-4,10.4-6.6C122.9,154.3,125.3,151.3,126.5,147.8z"/>
	<path class="st4" d="M117.8,160.7c3.3-2.4,6.3-5.3,7.9-9c0.3-1.3,0.4-2.6,0.8-3.8c-1.2,3.6-3.7,6.5-6.5,8.9
		c-3.1,2.7-6.6,5-10.4,6.6c-0.8,0.3-1.5,0.6-2.3,0.8c0,0.6,0.1,1.2,0.1,1.8C111.2,165.7,114.9,162.7,117.8,160.7z"/>
	<path class="st2" d="M125.3,144.9c-0.9,5.6-5.2,9.8-9.7,12.8c-2.3,1.6-4.8,3.3-7.4,4.2c-2.8,1-5.7,0.8-8.7,0.5
		c-0.8-6.4,1.8-12.1,6.5-16.4c3.1-2.9,8.7-7.3,13.3-5.9C121.2,141.9,123.2,143.5,125.3,144.9z"/>
	<path class="st12" d="M112.2,151.5c3.3-2.5,7.9-6,8-10.6c-0.3-0.3-0.6-0.5-0.9-0.8c-4.6-1.4-10.1,3-13.3,5.9c-3,2.8-5.1,6-6.1,9.7
		C104.5,156.8,108.7,154.2,112.2,151.5z"/>
	<path class="st15" d="M120.8,185.6c2.2,2,4.6,3.5,7.2,4.7c-4.6,3.9-11.7,7.4-17.3,3.8C113.7,190.9,116.8,187.5,120.8,185.6z"/>
	<path class="st16" d="M127.1,191.1c0.3-0.3,0.7-0.5,1-0.8c-2.6-1.2-5.1-2.8-7.2-4.7c-0.2,0.1-0.4,0.2-0.6,0.3
		C122.1,188.1,124.4,189.9,127.1,191.1z"/>
	<path class="st3" d="M110.1,92.9c0.2,0,0.3,0,0.5,0c-1.9,4.4-3.1,9.3-3.4,14.5c-0.3-0.2-0.7-0.3-1-0.5c0,0,0,0-0.1-0.1
		C106.2,101.8,107.4,97.3,110.1,92.9C110.1,92.9,110.1,92.9,110.1,92.9z"/>
	<g>
		<path d="M116.6,121.3c-0.2-1.4-0.5-2.8-0.7-4.2c-0.1-0.8-0.3-1.5-0.7-2.2c-0.7-1.1-1.8-1.5-2.1-0.1c-0.3,1.3,0.1,3.1,0.3,4.4
			c0.4,2.9,1.1,5.7,2.2,8.3c0.1,0.3,0.3,0.7,0.6,0.9c0.3,0.2,0.7,0.4,1,0.2c0.5-0.3,0.5-1,0.4-1.6
			C117.3,125.2,116.9,123.2,116.6,121.3z"/>
		<path d="M123,124.9c-0.2-1.6-0.3-3.2-0.5-4.9c-0.1-0.9-0.2-1.8-0.6-2.6c-0.7-1.3-1.9-1.8-2.4-0.3c-0.4,1.4-0.1,3.5,0,5
			c0.2,3.3,0.9,6.6,1.9,9.7c0.1,0.4,0.3,0.8,0.6,1.1s0.7,0.5,1.1,0.3c0.6-0.3,0.7-1.1,0.6-1.8C123.5,129.4,123.3,127.1,123,124.9z"
			/>
		<path d="M130,128.4c-0.1-1.7-0.2-3.5-0.4-5.2c-0.1-0.9-0.1-1.9-0.5-2.8c-0.7-1.4-2-2-2.5-0.4c-0.5,1.5-0.3,3.8-0.2,5.4
			c0.1,3.5,0.7,7.1,1.7,10.5c0.1,0.4,0.3,0.9,0.6,1.2s0.8,0.6,1.2,0.4c0.7-0.2,0.8-1.2,0.7-1.9C130.3,133.2,130.1,130.8,130,128.4z"
			/>
		<path d="M138,131.2c0-1.9-0.1-3.8-0.1-5.6c0-1-0.1-2.1-0.5-3c-0.6-1.5-2-2.3-2.7-0.5c-0.6,1.6-0.5,4.1-0.5,5.8
			c-0.1,3.8,0.4,7.6,1.3,11.4c0.1,0.5,0.2,0.9,0.5,1.3c0.3,0.4,0.8,0.6,1.3,0.5c0.8-0.2,0.9-1.2,0.9-2
			C138.1,136.3,138.1,133.7,138,131.2z"/>
	</g>
	<g>
		<path d="M170.7,121.3c0.2-1.4,0.5-2.8,0.7-4.2c0.1-0.8,0.3-1.5,0.7-2.2c0.7-1.1,1.8-1.5,2.1-0.1c0.3,1.3-0.1,3.1-0.3,4.4
			c-0.4,2.9-1.1,5.7-2.2,8.3c-0.1,0.3-0.3,0.7-0.6,0.9c-0.3,0.2-0.7,0.4-1,0.2c-0.5-0.3-0.5-1-0.4-1.6
			C170,125.2,170.4,123.2,170.7,121.3z"/>
		<path d="M164.2,124.9c0.2-1.6,0.3-3.2,0.5-4.9c0.1-0.9,0.2-1.8,0.6-2.6c0.7-1.3,1.9-1.8,2.4-0.3c0.4,1.4,0.1,3.5,0,5
			c-0.2,3.3-0.9,6.6-1.9,9.7c-0.1,0.4-0.3,0.8-0.6,1.1s-0.7,0.5-1.1,0.3c-0.6-0.3-0.7-1.1-0.6-1.8
			C163.8,129.4,164,127.1,164.2,124.9z"/>
		<path d="M157.3,128.4c0.1-1.7,0.2-3.5,0.4-5.2c0.1-0.9,0.1-1.9,0.5-2.8c0.7-1.4,2-2,2.5-0.4c0.5,1.5,0.3,3.8,0.2,5.4
			c-0.1,3.5-0.7,7.1-1.7,10.5c-0.1,0.4-0.3,0.9-0.6,1.2s-0.8,0.6-1.2,0.4c-0.7-0.2-0.8-1.2-0.7-1.9
			C157,133.2,157.2,130.8,157.3,128.4z"/>
		<path d="M149.3,131.2c0-1.9,0.1-3.8,0.1-5.6c0-1,0.1-2.1,0.5-3c0.6-1.5,2-2.3,2.7-0.5c0.6,1.6,0.5,4.1,0.5,5.8
			c0.1,3.8-0.4,7.6-1.3,11.4c-0.1,0.5-0.2,0.9-0.5,1.3c-0.3,0.4-0.8,0.6-1.3,0.5c-0.8-0.2-0.9-1.2-0.9-2
			C149.1,136.3,149.2,133.7,149.3,131.2z"/>
	</g>
	<path class="st12" d="M210.1,113.5c-4,0.2-7.9,0.4-11.9,0.8c-2.7,0.3-5.4,0.7-8.1,1c-0.4,0.4-0.7,0.9-1.1,1.3
		c-0.9,1-1.8,2.1-2.6,3.1c3.6-0.2,7.3-0.9,10.8-1.2c3.3-0.3,6.5-0.5,9.8-0.6C207.9,116.3,208.9,114.8,210.1,113.5z"/>
	<path class="st12" d="M190.7,137.9c1.4-1.8,2.7-3.7,4.2-5.4c-2.2,0.1-4.3,0.3-6.5,0.5c-4.4,0.4-8.8,1.1-13.2,1.5
		c0,0.1-0.1,0.1-0.1,0.2c-0.4,0.5-0.9,0.9-1.3,1.3c-0.6,0.8-1.2,1.5-1.8,2.3c5.5,0.1,10.9,0,16.5-0.3
		C189.2,138,190,137.9,190.7,137.9z"/>
	<path d="M220.5,89.4c0-0.3-0.2-0.6-0.4-0.7c-0.2-0.2-0.5-0.3-0.8-0.2l-10.8,2.3c-0.2,0-0.3,0.1-0.4,0.2l-0.1,0.1
		c-0.1,0.1-0.2,0.2-0.2,0.3l-0.1,0.1l0,0L170,139.3c-0.3,0-0.6-0.1-0.9-0.1c7-7.3,11.4-17.6,11.4-29c0-0.4,0-0.8,0-1.2
		c0.5-0.3,0.9-0.6,1.4-0.9c0.2-0.1,0.4-0.2,0.5-0.3c0.2-0.2,0.3-0.4,0.3-0.6l0,0c0-3.3-0.6-6.7-1.8-9.8c-0.6-1.6-1.3-3.1-2.2-4.5
		c-0.8-1.2-1.3-1.1-2.4-1c-4.8-10.1-13.4-17.7-23.6-20.5c0.1-0.1,0.2-0.3,0.2-0.5c0.9-7.2,0.1-15.6-6.5-19.8
		c-7.7-5-16.9-2.6-23.6,2.9c-7.2,5.9-10.4,14.9-13.6,23.3c-3.5,9.1-7.9,17-15.7,23c-8.6,6.5-21.3,13-32.1,8.8
		c-0.8-0.3-1.5,0.7-1.1,1.4c7,10.9,23.4,11.7,35.2,9c-1.7,2.1-4.8,3.6-7,4.7c-0.8,0.4-0.5,1.9,0.5,1.8c7.5-0.9,14.2-1.6,18.9-7.4
		c1.4,7.5,4.8,14.2,9.4,19.6c-4.6,0.1-9.5,3.9-12.6,6.8c-5.4,5-8,11.4-7,18.7c0,0,0,0,0,0.1c0.1,0.4,0.4,0.8,0.9,0.9
		c2.3,0.2,4.6,0.4,6.8,0.1c0.1,1.4,0.1,2.8,0.2,4.2c0,0.4,0.3,0.8,0.7,0.9c3.5,1.2,8.2-1.4,11.5-4c0.8,1.2,1.8,2.3,2.8,3.3
		c-0.8,1-1.4,2.1-1.8,3.4c0,0.1-0.1,0.2,0,0.3c0,0.1,0.1,0.2,0.1,0.3c1,1.4,2.5,2.4,4.2,3c-1.6,1.8-3.2,3.7-5.1,5.3
		c-0.4,0.4-0.3,1,0,1.4c0.5,0.6,0.9,1.1,1.4,1.6c-4.3,2.2-7.5,5.9-10.8,9.4c-0.3,0.3-0.4,1,0,1.4c2.8,2.2,5.9,2.8,8.9,2.5
		c-0.8,2.4-1.6,5-1.7,7.5c-0.1,3.2,1.3,6.6,3.6,8.9c-0.1,0.1-0.2,0.3-0.2,0.6c0,3.4-0.7,6.5-3.2,9c-1.7,1.6-3.4,3-4.8,4.9
		c-0.5,0.6,0.2,1.4,0.8,1.5c4.6,0.3,10.3,0,14.4-2.6c4-2.6,3.4-7.5,5.4-11.3c0.1-0.2,0.1-0.4,0.1-0.6c2.3-1.2,4.4-3,5.7-4.9
		c3-4.4,4.6-11.2,4.5-16.6c1.1,0.1,2.1,0.1,3.2,0.1c-0.1,5.4,1.4,12.2,4.5,16.5c1.3,1.9,3.4,3.7,5.7,4.9c0,0.2,0,0.4,0.1,0.6
		c1.9,3.8,1.4,8.8,5.3,11.3c4,2.6,9.7,2.9,14.4,2.6c0.7,0,1.3-0.8,0.8-1.5c-1.3-1.9-3.1-3.3-4.8-4.9c-2.5-2.5-3.2-5.5-3.2-9
		c0-0.2-0.1-0.4-0.2-0.6c2.3-2.3,3.6-5.8,3.6-8.9c-0.1-2.2-0.6-4.4-1.4-6.6c1,0.2,2,0.3,3,0.3c0.2,0,0.3,0,0.4-0.1
		c0.7,0.4,1.7-0.5,1.3-1.4c-2-4.4-4.1-9.1-7.8-12.4c0.6-0.7,1.1-1.4,1.6-2.3c0.3-0.6,0.3-1.1,0.1-1.5c-0.6-1.2-2.5-2.2-3.4-3
		c-1.5-1.3-2.9-2.9-3-5c2.9-0.5,5.8-2.5,7.1-4.7l3.1,2.5c1.1,0.9,2.6,0.7,3.5-0.4c0.9-1.1,0.7-2.6-0.4-3.5l-4.2-3.4l1-1.3
		c1.2,0.9,2.3,1.8,3.6,2.7c0.3,0.2,0.9,0.2,1.2-0.1c1.2-1.5,1.9-3.2,2.1-5c1.9,0.5,4.6,0.6,5.3-1.3c0.2-0.5,0.2-1.1,0.2-1.6
		c0-0.3,0-0.6,0-0.9c0-2.7-0.4-5.3-1.3-7.7l37-46.9c0.1-0.1,0.1-0.1,0.1-0.2s0.1-0.1,0.1-0.2l0,0c0-0.1,0.1-0.1,0.1-0.2
		c0.1-0.1,0.1-0.3,0.1-0.5L220.5,89.4z M209.1,92.7l0.1-0.1l8.4-1.8l-53.2,67.3l-4.3-3.4L209.1,92.7z M151,153.6l7.1,5.7l-0.1,0.1
		c-0.4,0-0.9,0-1.3,0c-1.1,0.1-1.5,0.5-1.6,1.6c-0.1,0.5,0.1,1.1,0.1,1.7v0.1c0,0,0,0,0.1,0.1l-1.8,2.4c-1.9-0.4-3.9,0.6-5.4,1.8
		c-0.3,0.3-0.8,0.6-1,1l0,0l-0.1,0.1c-0.3,0-0.6,0-0.9,0c0.1-2.2,0.6-4.4,0.6-6.6c0.1-2.6-0.1-5.2-0.3-7.8c-0.1-0.8-1.4-0.8-1.3,0
		c0.2,2.6,0.4,5.2,0.3,7.8c-0.1,2.2-0.5,4.3-0.6,6.5c-3.7-0.3-7.4-1.3-10.4-3.4c-1.6-1.1-3.2-2.4-4.5-3.9c-1.5-1.6-2.2-3.4-3-5.4
		c-0.5-1.3,0.7-3.1,1-4.4c0.3-1.4,0.6-2.8,0.6-4.2c4.6,2.3,9.7,3.6,15.1,3.6c2.8,0,5.6-0.4,8.2-1c3.4-0.9,6.6-2.2,9.6-4.1
		c0.2,0.9,0.7,1.7,0.8,2.7c0,0.2,0.1,0.5,0.3,0.6l-3.9,5l-4.6-3.7c-0.6-0.5-1.4-0.6-2.1-0.5c-0.5,0.1-1,0.4-1.3,0.8
		C149.7,151.2,149.9,152.8,151,153.6z M161.9,164.3c0.7,0.3,1.1,1,1.2,1.7c0,0.4-0.1,0.8-0.2,1.1c-0.1,0.3-0.3,0.6-0.5,0.9
		c-0.8,1-2,1.8-3.2,2c-0.3,0-0.5,0-0.8,0c-0.5,0-0.9-0.1-1.2-0.4c-0.5-0.3-0.7-0.8-0.6-1.5c0.1-0.9,0.7-1.6,1.3-2.2
		c0.4-0.4,1.2-1.4,1.7-1.6c0.3-0.1,0.7-0.1,1-0.1h0.1C161.1,164.2,161.5,164.2,161.9,164.3z M161.1,161.8l0.9,0.7
		c-0.1,0-0.2,0-0.2,0c-0.3-0.1-0.6-0.3-0.7-0.5C161.1,161.9,161.1,161.9,161.1,161.8z M156,165.7c-0.7,0.9-1.1,2-1.1,3.1
		c-0.4-0.2-0.8-0.4-1.1-0.6l3-3.9c0,0.1,0.1,0.1,0.1,0.2l0.1,0.1l-0.2,0.2c0,0,0,0.1-0.1,0.1C156.5,165.2,156.2,165.5,156,165.7z
		 M159.4,162.3c0,0.1,0,0.1,0,0.2c0,0.2-0.1,0.3-0.3,0.4c-0.3,0.2-0.6,0.3-1,0.3c-0.5,0-0.9-0.3-1.1-0.8c-0.2-0.2-0.2-0.5-0.1-0.7
		c0-0.1,0.1-0.1,0.1-0.2l0,0l0.1-0.1l0,0c0.1-0.1,0.1-0.1,0.2-0.2c0.5-0.4,1.2-0.4,1.6,0.1c0.3,0.2,0.5,0.4,0.5,0.8
		C159.4,162.1,159.4,162.2,159.4,162.3z M163.1,144.2c0.1-0.1,0.2-0.1,0.3-0.2c0.3,0.8,0.6,1.5,0.9,2.3l-0.4,0.5
		c-0.2-0.7-0.5-1.4-0.6-2.1C163.3,144.4,163.2,144.3,163.1,144.2z M165.1,142.7c0.7-0.6,1.4-1.1,2.1-1.8c0.5,0,0.9,0,1.4,0l-2.8,3.5
		C165.5,143.9,165.2,143.3,165.1,142.7z M173.4,129.8c-1.8,1.8-3.6,3.6-5.6,5.2c-6.7,5.3-15.3,9.2-23.5,11.6v-28.3
		c12.8-0.1,24.6-4.5,33.9-11.6c0.1,1.2,0.2,2.3,0.2,3.5C178.4,117.3,176.6,124,173.4,129.8z M177.2,92.9L177.2,92.9
		c2.6,4.4,3.9,8.9,4,13.9c0,0-0.1,0-0.1,0.1c-0.3,0.2-0.6,0.3-0.9,0.5c-0.3-5.1-1.5-10-3.4-14.4C176.9,92.9,177,92.9,177.2,92.9z
		 M178.1,105.1c-9.4,7.4-21.3,11.9-34.4,11.9c-13,0-25-4.5-34.4-11.9c0.5-4.5,1.8-8.8,3.6-12.6c2.3-1.2,4.7-2.3,7.2-3.5
		c7.1-3.2,14.9-6.5,23.6-8.5c8.7,2,16.4,5.2,23.6,8.5c2.5,1.1,4.9,2.3,7.2,3.4C176.3,96.3,177.5,100.6,178.1,105.1z M173.5,90.6
		c-1.5-0.8-3.1-1.5-4.7-2.2c-7.5-3.4-15.6-6.9-24.7-8.9H144h-0.1c-0.2,0-0.4,0-0.6,0h-0.1c0,0,0,0-0.1,0c-9.1,2.1-17.2,5.5-24.7,8.9
		c-1.6,0.7-3.2,1.5-4.7,2.2c6.1-11.2,17.2-18.7,29.8-18.7C156.3,71.9,167.4,79.4,173.5,90.6z M140.3,70.1v-0.5
		c0-1.8,1.5-3.3,3.3-3.3s3.3,1.5,3.3,3.3v0.5c-1.1-0.1-2.2-0.2-3.3-0.2C142.5,70,141.4,70,140.3,70.1z M93.7,123.1
		c2-1.3,3.8-3,4.6-5.2c0.2-0.7-0.5-1.4-1.2-1.2c-10.1,2.8-25.6,3.1-33.4-5.3c7.1,1.6,14.7-0.8,21-3.8c6.9-3.3,13.4-8.1,18.1-14.2
		c10.5-13.6,10.7-38.8,30.7-43.2c5.9-1.3,12.9,1,15.8,6.5c2.2,4.2,2.1,9.3,1.6,13.9v0.1c-0.7-0.1-1.3-0.3-2-0.4v-0.7
		c0-2.9-2.4-5.2-5.2-5.2c-2.9,0-5.2,2.4-5.2,5.2v0.7c-11.9,1.9-21.9,10-27.2,21.3c-1.1,0-1.7-0.2-2.5,1c-0.9,1.4-1.6,3-2.2,4.5
		c-1.2,3.1-1.7,6.5-1.8,9.8l0,0c0,0.2,0.1,0.5,0.3,0.6c0.2,0.1,0.3,0.2,0.5,0.3c0.5,0.3,1,0.6,1.5,0.9c0,0.4,0,0.8,0,1.2
		c0,1.8,0.1,3.7,0.3,5.5C104,120.8,99.2,122.3,93.7,123.1z M107.1,107.4c-0.3-0.2-0.7-0.3-1-0.5c0,0,0,0-0.1-0.1
		c0.1-5,1.3-9.5,4-13.8v-0.1c0.2,0,0.3,0,0.5,0C108.7,97.3,107.5,102.2,107.1,107.4z M114.1,130c-3.2-5.8-5.1-12.6-5.1-19.9
		c0-1.2,0.1-2.4,0.2-3.5c9.3,7.1,21.1,11.5,33.9,11.6v28.4c-8.2-2.4-16.9-6.3-23.6-11.6C117.5,133.5,115.8,131.8,114.1,130z
		 M117.2,134.7c0.5,0.4,1,0.8,1.5,1.2c7,5.5,16.1,9.6,24.7,12c0.1,0,0.2,0,0.3,0h0.1c0.1,0,0.1,0,0.2,0c8.6-2.4,17.6-6.5,24.7-12
		c0.6-0.5,1.2-1,1.8-1.5c-6.4,8.5-15.9,13.9-26.7,13.9h-0.1C133,148.4,123.5,143.1,117.2,134.7z M99.5,162.4
		c-0.8-6.4,1.8-12.1,6.5-16.4c3.1-2.9,8.7-7.3,13.3-5.9c1.8,1.8,3.8,3.4,6,4.8c-0.9,5.6-5.2,9.8-9.7,12.8c-2.3,1.6-4.8,3.3-7.4,4.2
		C105.4,162.9,102.4,162.7,99.5,162.4z M116.1,164.6c-1.3,1-2.7,1.9-4.3,2.5c-0.3,0.1-4.3,1.4-4.3,0.8c-0.1-1.3-0.1-2.5-0.2-3.8
		c0.8-0.2,1.5-0.4,2.3-0.8c3.8-1.6,7.2-4,10.4-6.6c2.8-2.4,5.3-5.4,6.5-8.9c-0.5,1.5-0.6,3.2-1.1,4.8c-0.6,1.6-1.3,3.1-2.2,4.5
		c-0.9,1.5-2,2.9-3.2,4.1C118.8,162.5,117.5,163.6,116.1,164.6z M119.4,164.4c0.4-0.4,0.9-0.8,1.2-1.1c1.9-1.9,3.6-4,4.9-6.3
		c-0.2,0.4,0.9,2.1,1.1,2.4c0.5,0.9,1.2,1.7,1.8,2.4c0,0.1,0.1,0.1,0.1,0.1c-0.8,0.4-1.5,0.8-2.2,1.3c-1.3,1-2.4,2.1-3.6,3.3
		c-0.3,0.3-0.6,0.6-0.8,0.9C121,166.5,120.1,165.5,119.4,164.4z M120.9,172.3c0.7-1.8,2.3-3.3,3.6-4.7c0.8-0.9,1.7-1.7,2.6-2.4
		s1.9-1.2,2.9-1.7c4.7,4.5,10.9,6.7,17.5,6.6c0.2,0,0.3,0,0.5-0.1c0.2-0.4,0.6-0.7,0.8-1.1c0.1-0.1,0.1-0.2,0.2-0.3l0.1-0.1
		c0.2-0.3,0.6-0.7,1.1-1.1c0.4-0.3,0.9-0.6,1.4-0.8l0,0c0.2,0,0.4,0.1,0.5,0.3c0.1,0.1,0.1,0.3,0.1,0.4l0,0v0.1c0,0.1,0,0.3-0.1,0.4
		c0,0.1-0.6,1.1-0.5,1.2v0.1c0.3,0.3,0.7,0.6,1.1,0.9c1.8,1,4.1,1.6,3.9,4.1c-0.1,1.6-1.3,2.9-2.9,3.3c-1.9,0.5-3.3-0.4-4.8-1.6
		c-0.6-0.4-1.1-1-1.8-1c-0.9-0.1-2.3,0.4-3.3,0.6c-4.3,0.6-8.7,0.9-13,0.3C127.5,175.3,123.5,174.7,120.9,172.3z M151.8,179.5
		C151.7,179.5,151.7,179.5,151.8,179.5c-0.1,0.2-0.1,0.3-0.2,0.4c-0.8,0.9-1.7,1.8-2.6,2c-0.9,0.2-2.5-0.8-2.9-1.6
		c-0.4-0.9,0-1.8,0.4-2.5c0-0.1,0.1-0.1,0.1-0.2c0.1-0.1,0.2-0.2,0.3-0.4c0,0,0,0,0.1-0.1C148.2,178.4,149.9,179.3,151.8,179.5z
		 M110.7,194.1c3-3.2,6.1-6.7,10.1-8.5c2.2,2,4.6,3.5,7.2,4.7C123.4,194.2,116.3,197.7,110.7,194.1z M125.6,225.3
		c-3,2.3-7.7,2.7-11.6,2.6c1.7-1.8,3.8-3.2,5.2-5.3c1.4-2.2,1.8-4.8,1.9-7.3c0.9,0.6,2,1.1,3.1,1.3c1.7,0.3,3.6,0.1,5.3-0.4
		C128.4,219.3,128.3,223.2,125.6,225.3z M125,214.7c-6.3-0.8-8-8.2-6.7-13.4c0.4-1.4,0.8-2.9,1.3-4.3c3.7-0.9,7.2-3.1,10.1-5.5
		c0.1-0.1,0.2-0.3,0.3-0.4c3.2,1.2,6.6,2,10.1,2.4C140.2,202,135.7,216.1,125,214.7z M144.2,191.8c-9-0.1-18.1-2.8-24.2-9.8
		c1.8-1.7,3.4-3.5,5.1-5.4c1.7,0.4,3.3,0.7,4.8,0.9c2.2,0.3,4.4,0.5,6.6,0.5c1.1,0,2.2-0.1,3.3-0.2c0.8-0.1,1.6-0.2,2.5-0.3h0.2
		c0.2,0,0.5-0.1,0.7-0.1c0.4-0.1,0.9-0.2,1.3-0.3c-0.2,0.5-0.4,1-0.5,1.6l0,0c-0.1,0.6,0,1.2,0.3,1.7c0.4,1.2,1.5,2.3,2.9,3
		c3,1.3,5.5-1.8,7.1-4.1c1.9-0.5,3.5-2.3,4-4.1c0.2-0.6,0.2-1.1,0.2-1.7l0.7-0.9c0.3,0.1,0.5,0.1,0.8,0.2c0.1,0.9,0.4,1.8,0.9,2.7
		c1.4,2.4,3.6,4.1,5.5,6.1c0,0.1,0,0.1,0,0.2c-0.1,1.2-1.6,2.1-2.4,2.9c-1.4,1.4-3,2.5-4.8,3.4C154.4,190.8,149.6,191.9,144.2,191.8
		z M167.9,222.6c1.4,2.1,3.5,3.5,5.2,5.3c-4,0.1-8.6-0.3-11.6-2.6c-2.7-2.1-2.8-6-3.9-9.1c1.8,0.6,3.6,0.7,5.3,0.4
		c1.1-0.2,2.2-0.7,3.1-1.3C166.1,217.8,166.5,220.4,167.9,222.6z M162.1,214.7c-10.6,1.4-15.1-12.5-15-21c3.1-0.1,6.4-0.8,9.4-2
		c1.5,1.9,4,2.9,6.2,4.1c1.7,0.9,3.4,1.6,5.2,2.1c0.4,1.1,0.7,2.3,1,3.4C170.1,206.5,168.4,213.9,162.1,214.7z M172.3,196.7
		c-3.2-0.2-5.9-1-8.7-2.6c-1.7-0.9-3.9-1.7-5.3-3.2c1.5-0.7,2.9-1.4,4.2-2.3c1.1-0.7,2.1-1.5,3-2.4
		C168.7,188.9,170.6,193,172.3,196.7z M167.6,167.1c-1,1.8-3.7,3.8-6.2,4.1c1.1-0.7,2-1.7,2.7-2.8c0.5-0.9,0.7-1.8,0.6-2.7l0.5-0.6
		L167.6,167.1C167.7,167.1,167.6,167.1,167.6,167.1z M174.2,168.5c0.2,0.2,0.3,0.5,0.1,0.7s-0.5,0.3-0.7,0.1l-21.4-17.2
		c-0.2-0.2-0.3-0.5-0.1-0.7s0.5-0.3,0.7-0.1L174.2,168.5z M176.1,162.8c-0.9-0.7-1.8-1.3-2.6-2l2.1-2.7c0.5,0.4,1.1,0.7,1.7,1
		C177.2,160.4,176.8,161.7,176.1,162.8z M182.4,157.2c0,0.1,0,0.2,0,0.3c-0.1,0.1-0.2,0.3-0.2,0.4c-1.8,0.6-3.7-0.1-5.5-1.2l5.1-6.5
		C182.5,152.4,182.6,154.8,182.4,157.2z M218.8,100.2C218.8,100.2,218.8,100.3,218.8,100.2l-49.1,62.2l-4.3-3.4l53.2-67.3
		L218.8,100.2L218.8,100.2z"/>
	<path class="st1" d="M161.4,160.7c-0.4,0.1-0.7,0.3-0.9,0.6c-0.3,0.8-0.2,1.4,0.3,2c0.6,0.7,1.7,0.5,2.2-0.1
		c0.2-0.2,0.3-0.5,0.3-0.8C162.6,161.9,162,161.3,161.4,160.7z"/>
</g>
</svg>
